<svg width="28" height="28" viewBox="0 0 28 28" fill="none" xmlns="http://www.w3.org/2000/svg">
<path d="M14 0C10.2869 0 6.72605 1.47499 4.10057 4.10057C1.47499 6.72595 0 10.287 0 14C0 17.713 1.47499 21.2739 4.10057 23.8994C6.72595 26.525 10.287 28 14 28C17.713 28 21.2739 26.525 23.8994 23.8994C26.525 21.274 28 17.713 28 14C28 10.287 26.525 6.72605 23.8994 4.10057C21.274 1.47499 17.713 0 14 0ZM9.51993 7.45345C10.123 7.44407 10.7055 7.67434 11.1389 8.09369C11.5725 8.51322 11.8217 9.08743 11.832 9.69058C11.8424 10.2937 11.6129 10.8763 11.1939 11.3105C10.7752 11.7445 10.2012 11.9945 9.59803 12.0056C8.99494 12.0167 8.41209 11.788 7.97734 11.3698C7.54278 10.9515 7.292 10.3778 7.2801 9.77473C7.26877 9.16963 7.49865 8.58509 7.91874 8.14974C8.33885 7.71439 8.91504 7.4638 9.51988 7.45345H9.51993ZM9.6711 19.8014H9.6713C9.4922 19.9986 9.24083 20.115 8.9746 20.124C8.70839 20.133 8.4498 20.0338 8.25801 19.849C8.06602 19.6642 7.95703 19.4098 7.95586 19.1434C7.95469 18.877 8.06133 18.6215 8.25156 18.435L18.659 7.62155C18.9057 7.37976 19.2607 7.28483 19.5949 7.37097C19.9293 7.4573 20.1941 7.71217 20.2932 8.04301C20.392 8.37367 20.3108 8.73226 20.0785 8.98791L9.6711 19.8014ZM18.48 20.5463C17.8769 20.5556 17.2945 20.3254 16.8611 19.906C16.4275 19.4865 16.1783 18.9123 16.168 18.3091C16.1576 17.706 16.3871 17.1234 16.806 16.6892C17.2248 16.2552 17.7988 16.0052 18.4019 15.9941C19.005 15.983 19.5879 16.2117 20.0226 16.6299C20.4572 17.0482 20.708 17.6219 20.7199 18.225C20.7312 18.8301 20.5013 19.4146 20.0812 19.85C19.6611 20.2853 19.0849 20.5359 18.48 20.5463Z" fill="#BF0A20"/>
</svg>
