<svg width="20" height="28" viewBox="0 0 20 28" fill="none" xmlns="http://www.w3.org/2000/svg">
<path d="M18.7637 13.9997C18.7637 13.9997 19.1116 18.1481 15.9267 20.2894C15.9267 20.2894 22.1628 7.92451 8.83427 0.618103C8.83427 0.618103 10.7078 3.803 6.31845 7.63011C2.65179 10.815 -6.07321 21.3334 6.74662 27.3818C6.74662 27.3818 1.55454 20.5838 8.00445 16.837C8.00445 16.837 5.54221 20.7979 9.95822 24.1434C12.5813 21.4136 11.8855 20.0219 11.8855 20.0219C11.8855 20.0219 15.6859 23.0729 12.8757 27.3819C12.8757 27.3819 23.5546 24.8125 18.7638 13.9998L18.7637 13.9997Z" fill="#BF0A20"/>
</svg>
