<svg width="35" height="24" viewBox="0 0 35 24" fill="none" xmlns="http://www.w3.org/2000/svg">
<path d="M24.8728 19.7827V23.0268C24.8728 23.2848 24.7732 23.5324 24.5954 23.7148C24.4179 23.8973 24.1772 24 23.9261 24H11.0278C10.7768 24 10.5357 23.8973 10.3582 23.7148C10.1807 23.5324 10.0811 23.2848 10.0811 23.0268V19.7827C10.08 17.9005 10.7583 16.085 11.9845 14.6872C13.2104 13.2896 14.8971 12.409 16.7183 12.216C18.5395 12.023 20.3656 12.5312 21.8433 13.6424C22.1483 13.8757 22.436 14.1319 22.7039 14.4092C24.0956 15.8311 24.8763 17.7657 24.8727 19.7827H24.8728Z" fill="#BF0A20"/>
<path d="M22.44 6.77139C22.44 9.58917 20.2179 11.8735 17.4768 11.8735C14.7358 11.8735 12.5137 9.58917 12.5137 6.77139C12.5137 3.95361 14.7358 1.66931 17.4768 1.66931C20.2179 1.66931 22.44 3.95361 22.44 6.77139Z" fill="#BF0A20"/>
<path d="M34.9998 15.7604V19.6296C34.9967 20.0638 34.6532 20.414 34.2308 20.414H25.6243V19.7831C25.6286 17.0622 24.3443 14.5097 22.1816 12.941C22.6852 11.937 23.448 11.0949 24.386 10.5072C25.3243 9.91949 26.4019 9.60852 27.5005 9.60852H29.0556C30.6358 9.61932 32.1475 10.2723 33.2613 11.4249C34.3747 12.5774 34.9998 14.136 34.9998 15.7604Z" fill="#BF0A20"/>
<path d="M32.7793 4.66547C32.7793 7.24232 30.7473 9.33121 28.2408 9.33121C25.7341 9.33121 23.7021 7.24232 23.7021 4.66547C23.7021 2.08888 25.7341 0 28.2408 0C30.7473 0 32.7793 2.08888 32.7793 4.66547Z" fill="#BF0A20"/>
<path d="M9.34078 19.7827V20.4139L0.768983 20.4136C0.346596 20.4136 0.00308196 20.0634 0 19.6292V15.76C0 14.1282 0.630379 12.5636 1.75278 11.41C2.87495 10.2562 4.39724 9.60816 5.98432 9.60816H7.5394C8.63238 9.6071 9.70484 9.91466 10.6395 10.4972C11.5745 11.0796 12.3357 11.9146 12.8408 12.9112C10.6505 14.4748 9.3434 17.0414 9.34084 19.7829L9.34078 19.7827Z" fill="#BF0A20"/>
<path d="M11.2978 4.66547C11.2978 7.24232 9.26581 9.33121 6.75912 9.33121C4.2527 9.33121 2.2207 7.24232 2.2207 4.66547C2.2207 2.08888 4.2527 0 6.75912 0C9.26581 0 11.2978 2.08888 11.2978 4.66547Z" fill="#BF0A20"/>
</svg>
