<svg width="24" height="22" viewBox="0 0 24 22" fill="none" xmlns="http://www.w3.org/2000/svg">
<path d="M14.7058 14.764C14.7058 15.2649 14.2994 15.6711 13.7982 15.6711C13.2969 15.6711 12.8906 15.2649 12.8906 14.764C12.8906 14.2629 13.2969 13.8569 13.7982 13.8569C14.2993 13.8569 14.7058 14.2629 14.7058 14.764Z" fill="#BF0A20"/>
<path d="M13.7979 11.2365C11.8517 11.2365 10.2686 12.8189 10.2686 14.7641C10.2686 16.7093 11.8518 18.2918 13.7979 18.2918C15.7441 18.2918 17.3273 16.7093 17.3273 14.7641C17.3273 12.8189 15.7441 11.2365 13.7979 11.2365ZM13.7979 16.2762C12.9642 16.2762 12.2854 15.598 12.2854 14.7644C12.2854 13.9308 12.9642 13.2526 13.7979 13.2526C14.6317 13.2526 15.3105 13.9308 15.3105 14.7644C15.3105 15.598 14.6316 16.2762 13.7979 16.2762Z" fill="#BF0A20"/>
<path d="M7.18066 6.0014H16.8207V8.65378H7.18066V6.0014Z" fill="#BF0A20"/>
<path d="M11.5996 18.2575V21.6977C11.5996 21.7992 11.6504 21.894 11.7352 21.9497C11.8204 22.0062 11.9272 22.0157 12.0208 21.9754L13.7984 21.2195L15.5756 21.9754C15.6692 22.0153 15.7756 22.0056 15.8612 21.9497C15.9458 21.8937 15.9968 21.7988 15.9968 21.6977V18.2575C15.3591 18.6599 14.6068 18.8964 13.7984 18.8964C12.9901 18.8964 12.2374 18.6598 11.5998 18.2575H11.5996Z" fill="#BF0A20"/>
<path d="M22.8906 0H1.10922C0.497354 0 0 0.497476 0 1.10866V15.1672C0 15.7784 0.497354 16.2758 1.10922 16.2758H9.95408C9.76897 15.807 9.66363 15.2978 9.66363 14.764C9.66363 14.4519 9.70162 14.1492 9.76735 13.8569H4.33605C4.16913 13.8569 4.03354 13.7214 4.03354 13.5545C4.03354 12.8321 3.44541 12.2442 2.72259 12.2442C2.55567 12.2442 2.42007 12.1087 2.42007 11.9419V4.33389C2.42007 4.16705 2.55567 4.03152 2.72259 4.03152C3.44541 4.03152 4.03354 3.44369 4.03354 2.72123C4.03354 2.55439 4.16913 2.41886 4.33605 2.41886H19.6637C19.8306 2.41886 19.9662 2.55439 19.9662 2.72123C19.9662 3.44369 20.5544 4.03152 21.2772 4.03152C21.4441 4.03152 21.5797 4.16705 21.5797 4.33389V11.9419C21.5797 12.1087 21.4441 12.2442 21.2772 12.2442C20.5544 12.2442 19.9662 12.8321 19.9662 13.5545C19.9662 13.7214 19.8306 13.8569 19.6637 13.8569H17.8288C17.8945 14.1492 17.9325 14.4519 17.9325 14.764C17.9325 15.2978 17.8272 15.807 17.642 16.2758H22.8908C23.5026 16.2758 24 15.7784 24 15.1672V1.10866C24 0.497429 23.5026 0 22.8908 0H22.8906Z" fill="#BF0A20"/>
<path d="M13.7992 10.6315C15.545 10.6315 17.0378 11.72 17.6432 13.252H19.3865C19.516 12.4376 20.1614 11.7929 20.9758 11.6631V4.61224C20.161 4.48247 19.516 3.83776 19.3865 3.02338L4.6157 3.02356C4.48622 3.83798 3.84083 4.48267 3.02637 4.61242V11.6633C3.8412 11.7931 4.48621 12.4378 4.6157 13.2522H9.95525C10.5607 11.7202 12.0535 10.6317 13.7992 10.6317V10.6315ZM6.87852 9.25839C6.71159 9.25839 6.576 9.12286 6.576 8.95602V5.6989C6.576 5.53206 6.71159 5.39653 6.87852 5.39653H17.1239C17.2908 5.39653 17.4264 5.53206 17.4264 5.6989V8.95602C17.4264 9.12286 17.2908 9.25839 17.1239 9.25839L6.87852 9.2582V9.25839Z" fill="#BF0A20"/>
</svg>
