<svg width="74" height="42" viewBox="0 0 74 42" fill="none" xmlns="http://www.w3.org/2000/svg">
<path d="M1.87031 40C1.73698 40 1.67031 39.8 1.67031 39.4C1.67031 39 1.73698 38.8 1.87031 38.8C4.80365 38.8 6.93698 38.6333 8.27031 38.3C9.67031 37.9 10.637 37.2333 11.1703 36.3C11.7036 35.3667 11.9703 33.9 11.9703 31.9V13.1C11.9703 10.3667 11.8036 8.5 11.4703 7.5C11.137 6.43333 10.437 5.9 9.37031 5.9C8.03698 5.9 5.53698 6.76666 1.87031 8.5L1.67031 8.6C1.47031 8.6 1.30365 8.43333 1.17031 8.1C1.03698 7.76667 1.10365 7.56667 1.37031 7.5L15.6703 0.499999C15.737 0.433331 15.837 0.399997 15.9703 0.399997C16.1703 0.399997 16.337 0.499998 16.4703 0.699999C16.6036 0.833331 16.6703 0.999997 16.6703 1.2V31.9C16.6703 33.9667 16.9036 35.4667 17.3703 36.4C17.837 37.3333 18.737 37.9667 20.0703 38.3C21.4703 38.6333 23.6703 38.8 26.6703 38.8C26.8703 38.8 26.9703 39 26.9703 39.4C26.9703 39.8 26.8703 40 26.6703 40C24.537 40 22.837 39.9667 21.5703 39.9L14.2703 39.8L7.17031 39.9C5.90365 39.9667 4.13698 40 1.87031 40ZM53.2734 41.3C49.4068 41.3 45.9068 40.4 42.7734 38.6C39.7068 36.8 37.3068 34.3333 35.5734 31.2C33.8401 28 32.9734 24.4 32.9734 20.4C32.9734 16.4667 33.8401 12.9667 35.5734 9.9C37.3068 6.83333 39.7068 4.43333 42.7734 2.7C45.9068 0.966665 49.4401 0.0999981 53.3734 0.0999981C57.2401 0.0999981 60.6734 0.999998 63.6734 2.8C66.6734 4.53333 69.0068 6.96666 70.6734 10.1C72.4068 13.2333 73.2734 16.7667 73.2734 20.7C73.2734 24.6333 72.4068 28.1667 70.6734 31.3C69.0068 34.4333 66.6401 36.9 63.5734 38.7C60.5734 40.4333 57.1401 41.3 53.2734 41.3ZM54.3734 40.1C58.6401 40.1 61.8401 38.4667 63.9734 35.2C66.1734 31.9333 67.2734 27.5 67.2734 21.9C67.2734 15.2333 65.8401 10.1333 62.9734 6.6C60.1068 3.06666 56.5401 1.3 52.2734 1.3C48.0734 1.3 44.7734 3 42.3734 6.4C40.0401 9.8 38.8734 14.2 38.8734 19.6C38.8734 23.4667 39.5068 26.9667 40.7734 30.1C42.0401 33.2333 43.8401 35.7 46.1734 37.5C48.5068 39.2333 51.2401 40.1 54.3734 40.1Z" fill="#222222"/>
</svg>
