<svg width="66" height="41" viewBox="0 0 66 41" fill="none" xmlns="http://www.w3.org/2000/svg">
<path d="M1.08125 41C0.947917 41 0.88125 40.8 0.88125 40.4C0.88125 40 0.947917 39.8 1.08125 39.8C4.01458 39.8 6.14792 39.6333 7.48125 39.3C8.88125 38.9 9.84792 38.2333 10.3813 37.3C10.9146 36.3667 11.1813 34.9 11.1813 32.9V14.1C11.1813 11.3667 11.0146 9.5 10.6813 8.5C10.3479 7.43333 9.64792 6.9 8.58125 6.9C7.24792 6.9 4.74792 7.76666 1.08125 9.5L0.88125 9.6C0.68125 9.6 0.514584 9.43333 0.38125 9.1C0.247917 8.76667 0.314584 8.56667 0.58125 8.5L14.8813 1.5C14.9479 1.43333 15.0479 1.4 15.1813 1.4C15.3813 1.4 15.5479 1.5 15.6813 1.7C15.8146 1.83333 15.8813 2 15.8813 2.2V32.9C15.8813 34.9667 16.1146 36.4667 16.5813 37.4C17.0479 38.3333 17.9479 38.9667 19.2813 39.3C20.6813 39.6333 22.8813 39.8 25.8813 39.8C26.0813 39.8 26.1813 40 26.1813 40.4C26.1813 40.8 26.0813 41 25.8813 41C23.7479 41 22.0479 40.9667 20.7813 40.9L13.4813 40.8L6.38125 40.9C5.11458 40.9667 3.34792 41 1.08125 41ZM32.1844 39.8C38.1177 35.2 42.7177 31.3333 45.9844 28.2C49.3177 25.0667 51.7177 22.2333 53.1844 19.7C54.7177 17.1667 55.4844 14.6667 55.4844 12.2C55.4844 9.4 54.6177 7.2 52.8844 5.6C51.151 3.93333 48.951 3.1 46.2844 3.1C43.6177 3.1 41.2844 4.13333 39.2844 6.2C37.2844 8.2 35.751 11.2 34.6844 15.2C34.6844 15.2667 34.551 15.3 34.2844 15.3C33.6844 15.3 33.4177 15.1667 33.4844 14.9L37.2844 0.199998C37.2844 0.0666642 37.4177 -2.6226e-06 37.6844 -2.6226e-06C37.8844 -2.6226e-06 38.051 0.0666642 38.1844 0.199998C38.3844 0.266666 38.451 0.333332 38.3844 0.399998C38.3177 0.666665 38.2844 0.999998 38.2844 1.4C38.2844 2.46666 38.7844 3 39.7844 3C40.3844 3 41.3844 2.76666 42.7844 2.3C43.7844 2.03333 44.9177 1.76666 46.1844 1.5C47.451 1.23333 48.6844 1.1 49.8844 1.1C53.2177 1.1 55.851 2.03333 57.7844 3.9C59.7844 5.7 60.7844 8.1 60.7844 11.1C60.7844 13.3667 60.0844 15.6333 58.6844 17.9C57.351 20.1667 55.151 22.7333 52.0844 25.6C49.0177 28.4667 44.751 32 39.2844 36.2C39.0177 36.4 38.9177 36.5667 38.9844 36.7C39.1177 36.8333 39.351 36.9 39.6844 36.9C47.4844 36.9 52.8177 36.8 55.6844 36.6C58.6177 36.3333 60.6844 35.7667 61.8844 34.9C63.0844 33.9667 63.951 32.3333 64.4844 30C64.551 29.8667 64.751 29.8333 65.0844 29.9C65.4844 29.9 65.6844 29.9667 65.6844 30.1L64.2844 39.9C64.2844 40.1667 64.1844 40.4333 63.9844 40.7C63.851 40.9 63.651 41 63.3844 41H32.8844C32.6177 41 32.3844 40.8667 32.1844 40.6C31.9844 40.3333 31.9844 40.0667 32.1844 39.8Z" fill="#222222"/>
</svg>
