<svg width="39" height="68" viewBox="0 0 39 68" fill="none" xmlns="http://www.w3.org/2000/svg">
<path d="M15.2578 29C11.9911 29 9.29115 28.3333 7.15781 27C5.02448 25.6667 3.45781 24 2.45781 22C1.45781 19.9333 0.957813 17.8 0.957813 15.6C0.957813 12.6 1.75781 9.93333 3.35781 7.6C4.95781 5.26666 7.12448 3.43333 9.85781 2.1C12.6578 0.766665 15.7245 0.0999981 19.0578 0.0999981C23.0578 0.0999981 26.5245 1.1 29.4578 3.1C32.4578 5.03333 34.7578 7.76667 36.3578 11.3C38.0245 14.8333 38.8578 18.9333 38.8578 23.6C38.8578 29.6667 37.4578 35.6333 34.6578 41.5C31.8578 47.4333 27.7911 52.7 22.4578 57.3C17.1911 61.9 10.9578 65.3 3.75781 67.5C3.55781 67.5667 3.35781 67.4333 3.15781 67.1C3.02448 66.7667 3.09115 66.5333 3.35781 66.4C9.75781 63.8667 15.2245 60.3333 19.7578 55.8C24.2911 51.3333 27.6911 46.4333 29.9578 41.1C32.2245 35.8333 33.3578 30.6667 33.3578 25.6C33.3578 22 32.7911 18.4 31.6578 14.8C30.5911 11.1333 28.8578 8.06667 26.4578 5.6C24.0578 3.13333 21.0245 1.9 17.3578 1.9C14.0245 1.9 11.3578 2.96667 9.35781 5.1C7.42448 7.16667 6.45781 10.0667 6.45781 13.8C6.45781 17.4 7.45781 20.4333 9.45781 22.9C11.4578 25.3 14.3245 26.5 18.0578 26.5C19.9245 26.5 21.5578 26.2333 22.9578 25.7C24.3578 25.1 25.9578 24.0667 27.7578 22.6C27.8245 22.5333 27.9245 22.5 28.0578 22.5C28.2578 22.5 28.4578 22.6 28.6578 22.8C28.8578 23 28.9245 23.1667 28.8578 23.3C25.4578 27.1 20.9245 29 15.2578 29Z" fill="white"/>
</svg>
