<svg width="88" height="88" fill="none" xmlns="http://www.w3.org/2000/svg"><path d="M23.762 57.644c.999.848 2.112 2.356 3.457 1.478 1.83-1.195 5.425-4.78 7.445-7.877 1.007-1.543 1.01-2.988.926-4.766a5.167 5.167 0 00-.067-.622c1.832-.819 4.003-2.436 3.642-4.42 2.19 3.225 3.287 3.516 5.408 5.834 1.304 1.426 2.333 3.057 3.544 4.555 1.105 1.367 2.585 2.334 3.614 3.753.106.146.25.15.365.082.3.522.743.473 1.196.196.144.062.296-.06.295-.209.493-.393.96-.966 1.226-1.264 1.667-1.874 3.549-3.532 5.152-5.467.766-.924 1.503-1.887 2.335-2.753 1.336-1.39 5.38-4.542 6.677-7.739.076-.188-.044-.341-.202-.393-.534-1.083-1.615-2.019-2.371-2.93-.619-.746-1.094-1.587-1.658-2.36a.187.187 0 00-.08-.135.137.137 0 00-.014-.074c-.502-.985-1.77-1.545-2.628-2.184-.655-.488-1.503-1.23-2.367-1.35.03-.567-2.34-.223-4.86-.18-2.557.045-5.213-.438-7.753-.063-.103.015-.143.086-.14.162-.971.277-1.949 1.164-2.759 1.66-1.019.624-2.355 1.042-3.218 1.9a.263.263 0 00-.262.17c-.759.513-1.352 1.41-1.887 2.112-.748.983-1.675 1.985-2.054 3.181-.045.142.174.234.258.121l.032-.045c.223.562 3.604 2.343 4.395 2.846.547.348 3.353 2.28 3.71 2.196.158.894.885 1.831 1.287 2.604 1.587 3.043 1.223 2.48 4.45 7.01.607.851 1.186 1.916 1.925 2.716a.888.888 0 01-.518-.136c-.338-1.155-1.92-1.94-3.34-3.641-1.265-1.517-2.317-3.196-3.646-4.662-1.24-1.367-2.708-2.493-3.953-3.856-.774-.847-1.374-1.763-2.05-2.68-.65-.883-1.519-1.48-2.309-2.225-.121-.114-.32.061-.25.2.252.5.637.904 1.031 1.304-1.036-.536-2.414-.68-3.405-.638-3.036.126-5.186 2.119-5.422 4.318-2.958.571-3.848 2.202-5.849 4.5-1.401 1.61-2.792 3.253-3.976 5.032-.088.069-.134.191-.048.291 1.405 1.623 3.082 3.063 4.716 4.448zm40.681-24.477c.335.846.92 1.596 1.476 2.3.69.873 1.424 1.968 2.275 2.736-1.28.498-2.416 1.277-3.617 1.933-1.01.551-2.209 1.082-3.163 1.807-.306-.95-.739-1.808-1.197-2.698-.47-.914-.894-1.987-1.51-2.837 1.194-.194 2.282-.977 3.24-1.668.833-.6 2.262-1.39 2.496-1.573zm-17.97-3.372c.372-.19.683-.287.83-.637 1.231.161 2.52.121 3.758.173 4.416.188 2.216.177 6.904.028.45-.014.92.025 1.35-.105.79.61 1.665 1.133 2.469 1.734.645.482 1.351 1.105 2.108 1.487-.791.194-2.836 1.839-3.624 2.37-.552.372-1.457.81-1.893 1.175-.165-.087-.372.065-.37.255-.516-.375-2.578-.114-3.013-.093-2.818.142-7.84-.255-8.178-.29a.286.286 0 00-.193.05c-.758-.88-2.339-1.7-3.315-2.346-.549-.364-1.174-.773-1.827-.988 3.77-1.831 3.741-2.174 4.993-2.813zm-1.51 12.322c-.33-.377-.805-.633-1.25-.892-.857-.498-5.595-3.563-6.412-3.6.598-.824 1.181-1.654 1.806-2.461.52-.673 1.257-1.302 1.776-2.002.676.44 1.38.827 2.045 1.287 1.02.705 2.115 1.525 3.302 1.919-.375 1.071-.586 2.232-.877 3.328a13.76 13.76 0 00-.39 2.421zm.408.083c.45-.895.561-2.034.841-2.974.268-.9.602-1.828.42-2.76 1.273.745 3.222.543 4.638.632.833.052 6.466.286 6.836-.374.216.728 2.664 5.337 2.824 5.597-1.28-.387-2.862-.004-4.16.122-3.46.335-4.943.086-8.56-.066-.932-.04-1.94.15-2.837-.177h-.002zm3.635 7.021c-1.374-1.973-2.286-4.193-3.52-6.246.611.313 1.428.296 2.08.33 6.595.343 5.822.386 10.928-.065.481-.042 2.3-.067 2.666-.398.764-.253 1.458-.72 2.165-1.098.715-.383 1.45-.732 2.153-1.136.562-.323 1.095-.656 1.663-.95-2.338 3.317-4.734 4.837-6.597 7.226-3.116 3.995-5.49 5.963-6.57 7.375-.233.303-.434.651-.677.88-1.332-2.024-2.906-3.929-4.291-5.918zm-15.149-9.734c1.56-.142 4.853.194 4.846 2.364-.004 1.51-1.904 2.822-3.262 3.623-.226-.867-.713-1.616-1.556-2.106-1.175-.682-2.333-.445-4.611-.06.267-1.918 2.047-3.59 4.583-3.821zm-8.354 6.435c1.17-1.261 1.777-1.7 3.4-1.999.025.754.26 1.5.686 2.106-.281.517-.361 1.236-.254 1.684.239 1.002 1.454 1.642 2.406 1.24.907-.383 1.396-1.566.962-2.46-.339-.696-1.244-1.201-2.008-1.032-.02-.1-.516-.13-.868.236a3.438 3.438 0 01-.583-1.834c1.462-.24 1.906-.312 2.36-.37 1.568-.204 3.035.678 3.333 2.271l-.087.05c-.149.083-.018.311.134.264.047.437.035.89.05 1.316.09 2.552-.614 3.538-3.342 6.675a39.232 39.232 0 01-3.402 3.464c-.757.679-1.695 1.784-2.739.98-2.403-1.851-4.43-3.968-6.04-5.473 1.912-2.445 3.88-4.84 5.992-7.118zm5.82 1.077a3.867 3.867 0 01-1.315-1.055c.032-.041.066-.081.102-.118.01.059.07.11.138.099 2.533-.416 2.595 1.81 1.52 2.52-1.02.672-2.742-.399-1.97-2.15.371.431.852.767 1.431.948.143.045.228-.178.095-.244z" fill="#fff"/></svg>