<svg width="88" height="88" fill="none" xmlns="http://www.w3.org/2000/svg"><path d="M27.664 56.919c-.715.248-1.312.8-1.92 1.246-.645.471-1.289.943-1.924 1.425-1.312.996-2.803 1.942-3.89 3.19-.051.058.018.127.081.097.056-.028.11-.06.167-.088-.262 3.566-.059 5.765-.038 5.644.424-2.452.473-5.621.444-5.859 1.178-.67 1.48-1.025 5.486-3.931.614-.446 1.331-.84 1.797-1.443.096-.124-.055-.332-.203-.281z" fill="#fff"/><path d="M67.863 32.61c-.03-.136-.248-.119-.269.013-.23 1.489-.06 3.122-.042 4.629.127 10.347-.203 28.57.514 31.156-4.618-.205-9.249-.218-13.878-.181.023-2.5-.267-2.853-.321-11.014-.023-3.529.112-7.063.039-10.592a359.572 359.572 0 004.199-3.487c1.322-1.115 2.745-2.135 4.02-3.301.206-.188-.043-.579-.29-.416-1.924 1.276-5.834 4.804-7.933 6.975l-.004-.22c-.002-.078-.132-.09-.142-.008l-.046.424c-.03.03-.041.062-.011.102-.52 4.939-.183 19.333.176 21.54-83.916.685 14.563 1.189 14.435.273.237-1.266.047-2.628.017-3.907-.261-11.396.094-29.505-.464-31.987zM19.941 56.087c.263-.898.29-1.857.363-2.785.09-1.183.284-2.425.132-3.606-.025-.198-.322-.178-.37-.006-.289 1.02-.287 2.133-.36 3.186-.072 1.055-.218 2.151-.07 3.203.025.184.258.17.305.008z" fill="#fff"/><path d="M66.466 19.017c-1.867.588-14.036 4.453-16.491 5.447-.228.091-.154.492.104.435l.023-.006c1.242.948 2.55 1.807 3.848 2.68-.788.407-.889 1.067-10.127 10.3-1.085 1.086-2.356 2.142-3.28 3.376-.785-1.1-1.667-2.085-2.62-3.047-.884-.895-1.803-1.91-2.896-2.555a.101.101 0 00-.154.056c-2.646 1.917-4.994 4.276-7.415 6.47-2.597 2.352-5.24 4.676-7.68 7.194-.097.1.039.253.147.162 2.6-2.206 5.136-4.491 7.69-6.75 2.496-2.205 5.188-4.34 7.334-6.895.745 1.032 1.736 1.93 2.605 2.855.921.98 1.835 1.93 2.87 2.791.084.069.209.01.224-.078C42.3 40.35 53.823 28.739 54.214 27.75c1.323.894 1.947 1.355 2.67 1.918-2.525 1.744-14.752 15.038-16.291 17.783-.122-.187-.084-.972-3.303-4.011-.396-.374-1.657-1.177-1.634-1.749.016-.405-.511-.544-.733-.23-5.285 7.494-13.133 12.45-14.762 14.794-.126.18.149.385.3.234 1.423-1.42 3.118-2.554 4.672-3.825 3.724-3.044 6.929-6.052 10.001-10.155.352.45 1.453 1.41 2.146 2.114.975.989 1.719 2.28 2.738 3.199.212.19.54.045.588-.199.418.473 2.542-3.056 13.071-13.728 1.22-1.237 2.647-2.431 3.659-3.87a42.328 42.328 0 013.745 3.401c.187.191.445.02.42-.192.139.218.485.277.624-.022.677-1.456 1.482-5.869 4.906-13.598.146-.327-.245-.7-.566-.598h.001zm-5.015 14.09c-2.566-3.766-6.875-6.25-10.87-8.325 2.282-.537 15.14-4.543 15.16-4.549-2.284 5.296-4.45 12.041-4.29 12.873zm-33.67 24.505c.003-.088-.13-.085-.149-.007-.817 3.428-.524 9.686-.115 10.745.021.054.114.062.124-.005.172-1.136-.183-1.553-.15-5.367.015-1.795.235-3.573.29-5.366zM44.12 67.81c-.58-6.126.045-12.73-.733-16.411-.013-.066-.125-.048-.117.02.353 3.159.068 14.18.598 16.426.033.138.265.11.251-.036v.001zm18.82-.06c.845-6.304-.366-13.386-.534-21.004-.05-2.277.074-4.542.137-6.817.003-.132-.18-.146-.203-.018-1.072 6.186.058 13.86.33 20.809.091 2.342.031 4.679.036 7.022 0 .152.214.154.233.008zM43.36 51.025c.066-.093.008-.275-.13-.245-.81.176-1.503.851-2.155 1.346-.723.549-1.43 1.12-2.13 1.699-1.363 1.127-3.017 2.262-4.088 3.679-.054.07.017.207.153.135 0 .021-.454 3.313-.094 7.86.074.932.074 1.958.388 2.842.024.068.135.063.145-.012.115-.884-.074-1.805-.139-2.69-.282-3.834.142-7.94-.214-8.047 1.45-.795 2.7-2.117 3.967-3.164 3.49-2.886 3.715-2.58 4.298-3.403z" fill="#fff"/></svg>