<svg width="88" height="88" fill="none" xmlns="http://www.w3.org/2000/svg"><path d="M46.549 64.825c4.12.473 10.162.31 14.315.065 2.119-.126 5.541.18 7.08-1.684.917-1.111.88-2.666.936-4.028.078-1.93.117-3.862.117-5.794 0-5.07.148-7.439-1.58-7.712-.023-.013-4.183-.33-5.101-.348-8.903-.178-11.708.057-13.571-.013 1.022-.575 8.634-4.321 9.578-5.017.865-.637.92-1.687.632-7.749-.093-1.955-.006-4.13-.504-6.03-.046-.177-.32-.195-.338.01l-.004.061c-.196-.26-5.19-1.347-8.81-2.329-1.134-.308-2.3-.464-3.438-.749-1.205-.3-2.701-.87-3.945-.532-1.362.371-2.596 1.666-3.696 2.508-6.489 4.965-15.885 13.692-18.745 16.802-.045-.012-.09-.023-.134-.036-.267-.073-.41.25-.278.423a.166.166 0 00-.055.125 41.87 41.87 0 00.04 2.628c.02.538-.088 1.278.057 1.839-.118.122-.12.36.09.42 4.462 1.286 9 2.268 13.519 3.323 1.658.387 3.676 1.249 5.383.658.8-.276 1.461-.843 2.096-1.382.585-.497 1.212-.98 1.766-1.525.01 1.122.05-.787.207 6.693.197 9.38-.383 8.828 4.383 9.374zm-6.016-40.429c1.705-1.2 2.314-.935 4.601-.364 1.143.286 2.302.471 3.447.741 1.325.313 2.62.745 3.944 1.064 1.657.398 3.323.75 4.967 1.2-2.78 2.286-5.2 5.065-7.801 7.557-5.177 4.96-11.988 10.884-12.412 11.178-1.04.718-2.189.234-3.328-.005a251.64 251.64 0 01-14.15-3.394C22.598 40 31.799 30.546 40.533 24.396zm-6.402 26.319c-5.295-1.288-10.032-2.089-14.676-3.48.139-.578-.01-1.4-.018-1.928a541.12 541.12 0 00-.064-2.498c3.443.95 14.39 3.774 16.78 4.053-.151.805-.066 1.606 0 2.417.054.643.056 1.293.096 1.937-.717-.101-1.428-.334-2.118-.501zm8.093-3.562a3.076 3.076 0 00-.238.957c-1.77 1.21-3 3.31-5.384 3.141.2-1.387-.226-3.02-.32-4.377.916.057 1.397-.634 2.224-1.318 6.89-5.692 19.365-17.758 19.17-18.469.141.04.283.07.408-.082-.097 2.218.433 3.74.39 10.816-.012 1.966-.172 1.837-2.524 3.107-1.691.914-3.37 1.85-5.067 2.752-1.01.537-2.117.996-3.085 1.613-1.784-.009-4.837.226-5.574 1.86zm.964-.229c1.183-1.059 2.882-1.157 4.53-1.106a.19.19 0 00.173.006c.842.032 1.666.095 2.395.082 14.124-.248 15.554.232 17.068.161 1.182.26 1.136 2.273 1.129 3.447a.256.256 0 00-.128-.024c-2.043.142-4.09.08-6.134.177-7.545.352-12.33-.868-19.568-.038-.078-1-.105-2.132.536-2.705zm-.512 2.994c8.115-.168 3.656-.292 13.317.239 2.955.163 12.255-.133 12.491-.19.026 1.052.036 2.103.038 3.155-.907-.039-1.815.157-2.751.215.324-.576.573-1.198.893-1.777.05-.09-.087-.158-.149-.087-.472.54-.916 1.163-1.054 1.882-1.332.078-2.361.078-4.606.088a.078.078 0 00.025-.025c.507-.798.952-1.626 1.4-2.457.067-.123-.1-.235-.183-.12-.565.779-1.036 1.582-1.366 2.49-.017.047.011.093.05.113-3.304.014-4.678-.057-7.123-.246.258-.616.564-1.207.89-1.79.044-.078-.081-.157-.134-.083-.412.576-.732 1.202-1.008 1.853-2.378-.186-2.202-.181-6.087-.385.456-.526.871-1.094 1.15-1.732.05-.112-.12-.191-.187-.094-.419.615-.811 1.239-1.29 1.81-1.424-.068-2.864-.084-4.221.14-.049-2.574-.028-2.211-.095-2.999zm.208 8.95l-.105-5.583c0 .036.002.09 0-.023 2.196.301 4.528.094 6.744.188 5.457.231 3.788.56 13.437.498 1.766-.011 3.853.08 5.562-.43a127.072 127.072 0 01-.095 5.218c-.051 1.391.08 3.166-.932 4.26-1.054 1.141-2.784 1.163-7.755 1.39-3.538.161-8.743.245-12.18-.065-1.23-.11-3.885-.029-4.416-1.36-.474-1.19-.236-2.837-.26-4.092zm-.104-5.582v-.013.013z" fill="#fff"/><path d="M63.012 56.856c.07.005.074-.1.012-.12-1.345-.414-2.792-.244-4.18-.194-1.09.04-2.66-.145-3.606.485-.017.011-.006.038.012.04 1.38.175 5.186-.385 7.762-.211zm-1.959 2.236c-1.05.024-2.08.197-3.136.177-.843-.017-1.696-.168-2.536-.131-.075.003-.1.126-.025.151 1.656.57 4.076.508 5.73-.051.083-.029.05-.149-.033-.146zm-2.176 2.46c-.565-.042-1.123-.022-1.689-.052-.554-.029-1.111-.13-1.664-.126-.065 0-.09.103-.028.128 1.691.659 3.869.087 3.381.05zM46.026 26.816c.988.306 2.08.726 3.122.695.187-.005.286-.301.117-.404-.825-.498-1.832-.624-2.752-.87-.969-.26-2.113-.895-3.111-.856-.069.002-.095.09-.058.14.56.756 1.818 1.027 2.682 1.295zM35.074 41.325c-1.091-.491-2.307-.713-3.471-.964-1.015-.218-2.08-.56-3.122-.554-.109.001-.175.16-.065.218.983.507 2.153.69 3.219.97 1.097.288 2.227.614 3.365.668.203.009.253-.257.074-.338zm1.772-6.993c1.682-.556 1.62-3.38.045-4.023-.16-.065-.286.13-.19.26.396.533.771 1.024.735 1.733-.036.7-.48 1.148-.887 1.67-.16.205.09.428.297.36zm1.831 2.194c2.873-1.019 3.575-5.695.57-7.023-.1-.044-.252.06-.17.171 3.072 4.171.357 5.066-.637 6.56-.097.145.078.348.237.292z" fill="#fff"/><path d="M43.613 33.297c-.417 2.082-1.954 3.233-3.208 4.785-.095.118.044.32.19.277 2.07-.626 3.533-2.983 3.845-5.034.29-1.903-.334-4.327-2.175-5.257-.211-.107-.38.15-.236.32 1.205 1.405 1.965 3.008 1.584 4.91zM33.178 47.068c-4.602-.494-10.615-2.418-12.018-2.162-.541-.177-.281 1.232-.088 1.406-.022.04-.01.096.047.109 1.08.243 2.163.39 3.232.702 4.366 1.279 3.19.878 5.803 1.31.309.05 3.038.562 2.966.218.05-.054.126-.84.071-1.321.126-.03.118-.248-.013-.262zm-.198 1.507c-2.271-.414-1.272.182-5.942-1.03-1.787-.465-3.808-1.483-5.694-1.297.05-.12-.059-.1-.05-1.103 2.052.489 4.134.892 6.195 1.345 1.709.375 3.737 1.143 5.513.87-.063.404-.053.803-.022 1.215zm19.33-12.124c-3.375 2.363-8.34 7.096-10.602 8.587-.047.031-.018.119.041.097 1.017-.372 1.49-.84 5.307-3.975 1.814-1.49 3.703-2.924 5.4-4.546.106-.1-.034-.242-.147-.163zm-5.724 26.003c1.12.199 2.403-.255 3.126-1.14.1.709 1.17.978 1.796.926 1.227-.104 2.427-1.296 2.535-2.53.1-1.148-1.029-2.266-2.088-2.527-.768-.19-2.04-.023-2.28.827a3.555 3.555 0 00-2.173-1.326c-.098-.017-.18.085-.148.163-1.377.037-2.692.813-3.001 2.3-.313 1.507.724 3.04 2.233 3.307zm6.606-3.6c.443.808-.087 1.823-.731 2.372-.817.695-1.876.572-2.536-.214.543-.892.453-1.95-.117-2.815.97-1.1 2.727-.54 3.384.658zm-5.388-1.728c.986.567 1.902 1.276 1.926 2.546.029 1.533-1.696 2.456-3.064 2.184-2.16-.43-2.761-4.045 1.138-4.73z" fill="#fff"/></svg>