<svg width="88" height="88" fill="none" xmlns="http://www.w3.org/2000/svg"><path d="M39.887 50.585c.373-.065 1.233.18 1.245-.086.046-1.024-2.477-.852-3.124.557-.63 1.373 1.526 1.938 2.252.958.113-.152-.035-.418-.224-.398-.352.037-.718.21-1.072.114-.733-.2.173-1.015.923-1.145zm-14.883-1.722c.048-.019.057-.096-.002-.11-2.813-.61-4.512 4.39-1.678 5.458 3.091 1.165 4.715-3.554 2.354-5.293-.081-.06-.198.038-.15.128.549 1.047 1.123 1.987.758 3.205-.393 1.317-1.747 2.16-3.051 1.534-1.143-.549-1.32-2.015-.837-3.09.518-1.154 1.533-1.413 2.606-1.832zm4.886 12.254c-1.086-.116-1.25 2.07-1.05 2.805.436 1.591 2.315 2.114 3.8 1.782 3.021-.676 1.951-6.547-2.75-4.587zm3.49 3.657c-1.106 1.057-4.012.668-4.296-1.29-.113-.777.03-2.174 1.145-2.223.024 0 .022-.035.004-.043-.025-.012-.049-.02-.073-.03.756-.159 1.579-.316 2.31-.058 1.39.49 2.02 2.583.91 3.644zm15.94-13.982c.254-.423.485-.867.692-1.316.157-.339.414-.732.315-1.11-.006-.023-.037-.043-.06-.027-.32.222-.386.677-.512 1.029-.167.463-.339.926-.502 1.391-.014.04.045.07.067.033zm3.827-.867c.42-.716.675-1.45.748-2.277.005-.064-.098-.075-.112-.013a12.448 12.448 0 01-.718 2.253c-.02.048.056.081.082.038zm3.153-1.699c.228-.416.407-.87.433-1.349.003-.058-.078-.064-.097-.014-.16.436-.281.885-.448 1.32-.025.064.08.101.112.043zM43.32 30.449c-.006-.01-.022-.003-.02.008.2 1.457 1.011 2.97 1.571 4.322.503 1.214.956 2.405 1.92 3.33.02.018.05-.014.032-.032-1.535-1.563-2.253-5.714-3.503-7.628zM63.6 54.788c.027.083.15.05.146-.033-.077-1.49-.944-3.198-2.28-3.924-.067-.035-.141.053-.095.112 1.136 1.452 1.488 1.577 2.229 3.845z" fill="#fff"/><path d="M25.376 57.493c1.942-.238 5.816-1.912 4.905-4.483.607.006 1.221-.118 1.83-.132 1.266-.029 2.986.043 3.112.045-.402.383-.642.914-.999 1.397-.589.798-2.045 2.065-2.164 2.682-4.126-.233-7.538 4.347-5.802 8.246 1.003 2.255 3.51 3.995 6.022 3.724 2.407-.26 4.575-2.319 4.91-4.725.319-2.28-.69-5.1-3.118-5.687 1.122-.836 1.985-2.047 3.057-2.952 1.054-.89 2.382-1.748 3.115-2.936 1.086-.361 2.022-.723 3.217-.607 1.18.114 2.318.467 3.502.566 2.986.25 6.511-.17 9.13-1.693-.155.259 1.63 1.461 2.46 2.74 1.544 2.382 1.959 7.55 2.898 10.916.045.164.32.202.33-.005v-.053c1.718-1.381 2.954-3.502 3.12-5.708 1.016 1.58 2.408 2.843 3.337 4.484.055.096.166.11.248.072.085.044.193.035.243-.07.333-.7.193-1.614.148-2.376-.378-6.311-4.069-12.981-7.942-15.878a6.5 6.5 0 00.195-1.299c.08-.09.017-.282-.125-.253-.479.098-.955.22-1.43.358-.736-.81-4.064-1.86-6.84-4.362 1.477-1.124 2.437-2.812 4.072-3.757.138-.08.18-.239.15-.379a.57.57 0 00.172.008c.067-.008.132-.066.139-.136.162-1.702-6.565-2.572-7.988.074-2.103-3.524-2.71-8.092-2.142-12.121.192-1.36.694-2.662.88-4.009.021-.153-.202-.259-.29-.118-.023.036-.044.073-.066.11-2.173 1.974-3.375 4.718-4.161 7.508-.85-1.94-1.72-3.91-2.749-5.751-.121-.218-.355-.242-.527-.067-.893.912-2.159 2.028-2.427 3.357-.505.809-.228 2.224-.172 3.078a28.32 28.32 0 00.41 3.191c.794 4.39 1.941 7.784 4.557 11.104-1.212 1.94-1.827 4.214-3.005 5.965-.435.648-1.02 1.272-1.306 2.01-2.353.426-4.718.789-7.09 1.074-.077.01-.076.127.003.121 3.409-.267 6.785-.777 10.13-1.453.142.048.226-.005.307-.063 6.893-1.412 11.454-2.953 17.83-4.95.074.01.171.035.228-.07l1.11-.346c-.738 1.801-1.386 3.475-2.787 4.911-1.49 1.525-3.372 2.575-5.465 2.988-6.925 1.368-9.495-1.297-12.367.737-.26.02-4.369 3.422-6.431 5.938-.063.077-.024.18.047.218.07.217 1.919 1.04 2.559 2.81 1.7 4.71-3.542 8.729-7.542 5.891-4.653-3.3-2.002-9.8 3.39-10.087.104.055.237.044.317-.093.563-.965 1.437-1.624 2.078-2.52.404-.565.668-1.286 1.191-1.758a4.232 4.232 0 001.255-.216c.084-.03.061-.154-.02-.166-1.265-.197-2.69-.083-3.972-.061-.894.015-2.01-.022-2.828.403-.078-.086-.246-.062-.263.071-.185 1.39-.747 2.337-1.975 3.05-3.835 2.23-7.427.162-8.166-3.38-1.055-5.05 4.878-8.078 8.351-5.851 1.323.848 2.905 2.367 2.655 4.08-.017.113.146.144.19.044.951-2.227-1.992-4.737-3.872-5.308-2.71-.822-6.144.58-7.459 3.115-2.032 3.918 1.1 9.354 5.69 8.793zM53.801 34.19c1.832.178 2.407.746 2.671.935-1.314.258-3.023 2.543-4.26 3.89a18.989 18.989 0 01-2.844-3.56c.958-.344 2.136-1.489 4.433-1.265zM41.069 49.035c-.757.156-1.515.303-2.275.444 1.595-1.256 2.52-4.443 4.198-7.389.879 1.051 1.921 2.094 2.971 2.923-.814.466-1.566 1.088-2.32 1.637-.396.288-2.694 1.834-2.574 2.386zm1.208-.256c3.43-2.55 3.726-2.644 4.271-3.329 1.035.732 2.202 1.322 3.388 1.445a129.261 129.261 0 01-7.659 1.884zm8.424-2.094c-.126-.203-1.96-.809-2.91-1.335-2.638-1.465-5.295-4.63-6.708-7.453-2.295-4.583-3.274-12.28-2.968-13.506.498-1.123 1.324-1.972 2.242-2.821.869 2.071 1.909 4.104 2.934 6.098.134.26.494.248.568-.055.65-2.694 1.726-4.99 3.245-7.2-.34.999-.514 2.102-.65 3.077-.61 4.37.228 9.193 2.688 12.82 2.725 4.02 5.132 5.277 8.044 6.874.499.275 1.049.673 1.615.918-2.37.763-2.589 1.033-8.1 2.583zm10.092-1.148c.303.41.84.728 1.149 1.095.451.537.847 1.116 1.253 1.687 2.603 3.658 4.646 7.315 5.038 12.412.037.492-.016 1.036-.004 1.56-.245-.44-.574-.824-.937-1.224-.905-.995-1.731-2.017-2.396-3.19-.133-.233-.473-.15-.454.129.17 2.543-1.258 4.278-2.652 6.188.037-2.68-.715-5.458-1.428-8.012-.568-2.035-1.889-4.737-4.18-5.285-.006-.002-.011-.001-.016-.001 2.056-1.214 3.889-3.134 4.627-5.358z" fill="#fff"/></svg>