<svg width="88" height="88" fill="none" xmlns="http://www.w3.org/2000/svg"><path d="M37.735 56.58c.432.357 1.506-1.223 2.97-2.473 2.955 3.364 6.245 6.76 9.814 9.433.053.073.149.113.242.054 2.328-1.477 7.407-5.982 9.298-7.743 2.75-2.562 5.778-5.236 7.477-8.648 5.153-10.352-4.318-19.215-12.559-14.556-.154-1.7-1.134-3.3-2.15-4.615-5.256-6.802-13.514-2.826-15.419 1.585-2.605-5.896-12.401-5.593-16.289-1.299-2.303 2.545-2.558 6.27-1.58 9.433 1.75 5.674 7.162 9.695 18.195 18.83h.001zm21.83-24.528c7.12.2 11.15 8.117 6.842 15.586-2.882 4.998-11.39 11.457-15.743 15.532-4.842-4.772-9.919-9.388-13.835-14.995-4.87-6.972-1.505-15.645 4.673-16.361 4.12-.477 7.594 2.167 10.354 4.904.035.035.083-.011.056-.05-.058-.083-.119-.164-.178-.246 1.94-2.536 4.471-4.465 7.832-4.371zm-39.352-.668c2.302-6.868 13.845-7.337 17.028-1.597.02.035.047.051.076.056-.011.029-.024.056-.035.084-.024.068.077.098.111.044 2.915-4.582 10.223-7.848 15.138-.997 1.375 1.916 1.366 2.802 1.853 4.038-1.216.816-2.209 1.92-2.76 3.26-5.097-6.896-12.973-6.631-16.252-1.255-1.767 2.898-2.062 6.555-1.076 9.772 1.042 3.398 3.664 6.24 6.01 8.87-.834.7-1.551 1.538-2.393 2.228-9.854-8.386-13.461-11.052-15.969-14.873-1.83-2.788-2.824-6.37-1.731-9.63z" fill="#fff"/></svg>