<svg width="88" height="88" fill="none" xmlns="http://www.w3.org/2000/svg"><path d="M35.824 35.344c-1.443-2.42-2.768-5.722-2.094-8.624.072-1.003.302-1.982.832-2.908 2.038-3.558 7.666-5.242 11.067-4.718 2.142.33 4.405.938 6.231 2.144 3.703 2.445 3.333 7.544 1.806 11.165-1.216 2.883-4.252 7.265-5.84 8.999-.614.67-2.446 1.82-2.115 2.898.224.729 1.161 1.246 1.727 1.685 1.875 1.456 4.534 4.395 5.985 7.36 2.62 5.353 1.903 11.62-3.75 14.564-2.069 1.077-7.403 1.567-10.892.48-4.738-1.475-8.305-7.415-3.083-16.434a23.968 23.968 0 011.97-2.905c.559-.988 1.637-2.242 3.24-3.35 1-.69 1.278-1.208 1.344-2.48-.637-2.015-3.431-2.85-6.428-7.876zM50.31 21.06c-2.205-1.016-4.95-1.79-7.382-1.393-2.372.388-4.89 1.174-6.664 2.867-2.03 1.937-2.071 4.37-2.151 6.97.05.338.116.673.196 1.005.123-1.119 2.017-1.957 2.945-2.184 5.595-1.365 14.46.311 16.505 1.813 1.224-4.927-.452-7.696-3.45-9.078zm-7.517 22.968c-.014.844-.646 1.577-1.432 2.068-1.406.88-1.896 1.22-3.859 3.76a.107.107 0 01-.03.028c-1.81 2.446-3.157 5.277-3.737 8.226-1 5.082 1.752 9.034 6.074 9.981 1.96.43 4.011.403 5.993.158 1.84-.227 3.397-.64 4.916-1.749 6.14-4.48 3.864-14.102-3.753-20.033-.827-.644-2.149-1.45-1.943-2.689.2-1.209 1.513-1.69 3.399-4.1 2.13-2.725 4.397-5.925 5.299-9.384-2.03-1.04-4.577-1.333-6.782-1.61-3.05-.383-6.249-.514-9.268.16-.91.204-3.69 1.123-2.443 2.443 1.15 1.217 3.388 1.24 4.934 1.39 3.348.323 6.84.289 10.049-.783.293-.098.454.336.166.452-3.425 1.374-8.703 1.24-12.31.622-1.247-.214-2.819-.575-3.538-1.668 2.306 7.472 8.904 10.347 8.264 12.728z" fill="#fff"/><path d="M44.774 51.516c1.365.526 1.565 1.722 2.01 2.945.927 2.544 3.828 3.867 4.309 6.611 1.084.639 1.474 1.411 1.662 2.335.02.1-.14.143-.173.047-.482-1.377-2.632-2.408-2.89-2.678-.051-.053.004-.12.063-.124.352-.017.755.114 1.126.304-.834-1.994-2.542-3.205-3.755-4.949-.662-.951-.764-2.063-1.329-3.034-.4-.69-1.206-1.245-2.039-1.147-1.015.118-1.698 1.244-3.461 2.534-.406.298-.989.515-1.292.931-.427.586-.106 1.227-.287 1.852-.131.456-.428.666-.808.92-1.805 1.213-2.765 3.273-2 5.434.114-.39.35-.8.735-1.225.077-.086.215.02.142.111-.618.777-.673 1.54-.37 2.2 1.077 1.873 3.247 2.055 5.372 2.47.08.015.096.131.008.148-1.811.356-4.877-.589-5.74-2.231-1.638-1.775-1.358-4.425.185-6.312.454-.556 1.05-.783 1.542-1.252.622-.592.202-1.525.577-2.22.226-.42.603-.66.993-.911 2.45-1.582 3.548-3.478 5.42-2.759zm2.65 2.209c.005 0 .005.008 0 .008s-.005-.008 0-.008z" fill="#fff"/><path d="M43.928 55.684c-.027-.047.037-.086.07-.045.047.06.096.119.144.178.055.068-.053.145-.097.07-.038-.068-.078-.135-.117-.203zm-1.114-.671a.185.185 0 01.09-.093.427.427 0 00.028-.052c.053-.104.21-.117.298-.058.297.2-.172.644-.416.442-.063-.052-.12-.134-.05-.208a.118.118 0 01.05-.03zm-2.402 1.201c.078-.292.488-.09.306.15l-.059.076c-.112.145-.316.013-.268-.15l.02-.076zm1.306 2.083c.014 0 .012.02-.001.02-.014 0-.012-.02.001-.02zm4.993 2.103l.135.038c.058.017.052.1-.004.116l-.112.033c-.173.052-.158-.229-.019-.188zm1.773-.29c-.013 0-.011-.022.002-.022s.011.021-.002.021zm-3.234-4.045c-.017.269-.446.268-.427-.027.008-.122.446-.268.427.027zm-.234-1.618c.095-.109.266.056.162.146-.104.09-.2.177-.317.248-.057.034-.116-.039-.084-.09.068-.113.153-.206.239-.304zm-3.693 4.911c.013 0 .011.022-.002.022-.014 0-.012-.022.002-.022zm-1.129.796c.013 0 .011.02-.002.02s-.011-.02.002-.02zm2.98 3.254c.007-.006.016.005.01.012l-.067.066c-.007.007-.017-.004-.01-.011l.067-.067zm3.296-2.848l-.007.131c-.003.042-.065.05-.068.005l-.008-.133c-.002-.054.087-.056.084-.004zm2.627 1.583c-.05.063-.164.087-.226.026l.104-.315c.122.02.206.184.122.289zm-1.077 2.808c-.014 0-.012-.021 0-.021.014 0 .013.021 0 .021zm-4.436-.167c.053-.014.103.04.133-.06.208-.069.383.18.324.362-.062.193-.345.275-.478.102l.033.048c-.086-.055-.17-.133-.182-.234a.196.196 0 01.17-.218zm-2.062-.655l-.052-.073c-.041-.058.02-.15.088-.101l.078.056c.099.071-.044.215-.114.118zm-1.335-1.561l-.198-.07c-.018-.006-.007-.033.012-.027.067.02.133.042.2.063.023.007.009.043-.014.034zM39.09 63.58c.023.108.042.198.046.306.002.08-.111.085-.143.026a1.505 1.505 0 01-.102-.262c-.041-.132.17-.199.199-.07zm-.55-3.763c.345-.696 1.358-1.145 1.814-1.036.053.013.068.098.023.128-.275.183-.611.238-.895.417-.287.18-.525.417-.786.632-.089.073-.202-.051-.157-.141z" fill="#fff"/></svg>