<svg width="17" height="16" fill="none" xmlns="http://www.w3.org/2000/svg"><g clip-path="url(#clip0_504_59)" fill="#fff"><path d="M12.202 0H4.864a4.336 4.336 0 00-4.33 4.331v7.338A4.336 4.336 0 004.863 16h7.338a4.336 4.336 0 004.331-4.331V4.331A4.336 4.336 0 0012.203 0zM8.533 12.375A4.38 4.38 0 014.158 8a4.38 4.38 0 014.375-4.375A4.38 4.38 0 0112.908 8a4.38 4.38 0 01-4.375 4.375zm4.48-7.718c-.713 0-1.293-.58-1.293-1.293s.58-1.293 1.293-1.293 1.293.58 1.293 1.293-.58 1.293-1.293 1.293z"/><path d="M8.534 4.563A3.44 3.44 0 005.097 8a3.44 3.44 0 003.437 3.437A3.44 3.44 0 0011.97 8a3.44 3.44 0 00-3.436-3.437zm4.479-1.553a.355.355 0 100 .71.355.355 0 000-.71z"/></g><defs><clipPath id="clip0_504_59"><path fill="#fff" transform="translate(.533)" d="M0 0h16v16H0z"/></clipPath></defs></svg>