<svg width="17" height="16" fill="none" xmlns="http://www.w3.org/2000/svg"><path fill-rule="evenodd" clip-rule="evenodd" d="M1.668 1.135C.533 2.27.533 4.097.533 7.75v.5c0 3.653 0 5.48 1.135 6.615C2.803 16 4.63 16 8.283 16h.5c3.654 0 5.48 0 6.615-1.135 1.135-1.135 1.135-2.962 1.135-6.615v-.5c0-3.654 0-5.48-1.135-6.615C14.263 0 12.437 0 8.783 0h-.5C4.63 0 2.803 0 1.668 1.135zM13.37 5c.362 0 .438.186.362.44-.152.698-1.611 2.753-1.611 2.753-.127.203-.178.305 0 .533.062.087.196.217.348.367.157.154.335.328.477.495.514.579.902 1.067 1.01 1.404.099.337-.072.508-.415.508h-1.198c-.32 0-.483-.18-.832-.569-.148-.164-.33-.366-.571-.607-.71-.685-1.015-.774-1.193-.774-.241 0-.314.068-.314.41v1.074c0 .295-.094.466-.855.466-1.269 0-2.664-.77-3.654-2.191-1.485-2.08-1.89-3.653-1.89-3.97 0-.178.068-.339.41-.339h1.198c.306 0 .421.134.536.465.586 1.707 1.574 3.197 1.98 3.197.152 0 .222-.07.222-.457V6.443c-.027-.502-.203-.719-.333-.88-.08-.099-.143-.177-.143-.287 0-.134.115-.275.305-.275H9.09c.254 0 .343.136.343.44v2.372c0 .254.11.343.186.343.152 0 .28-.089.558-.368.863-.964 1.473-2.449 1.473-2.449A.517.517 0 0112.17 5h1.199z" fill="#fff"/></svg>