<svg width="211" height="168" fill="none" xmlns="http://www.w3.org/2000/svg"><path d="M57.624 78.336c-12.2 5.287-17.824 19.513-12.537 31.715 5.287 12.201 19.514 17.826 31.714 12.539 12.202-5.287 17.827-19.514 12.54-31.716-5.287-12.2-19.514-17.826-31.717-12.538z" fill="#BF0A20"/><path d="M171.601 34.085L169.819.335 46.906 53.598C21.063 64.796 9.148 94.93 20.347 120.774c11.198 25.841 41.331 37.753 67.175 26.555 25.842-11.198 37.758-41.333 26.559-67.177-.016-.037-.011-.076-.022-.113a1.737 1.737 0 01-.067-.303c-.011-.096-.025-.184-.016-.278.003-.097.03-.191.053-.285a1.25 1.25 0 01.09-.271c.04-.087.095-.16.151-.239.063-.085.125-.162.201-.233.029-.026.043-.062.076-.086l57.054-44.259zm-93.589 91.299c-13.74 5.955-29.762-.381-35.716-14.122-5.955-13.741.38-29.764 14.12-35.717 13.743-5.955 29.767.38 35.72 14.12 5.955 13.74-.38 29.764-14.124 35.719z" fill="#BF0A20"/></svg>