<svg width="177" height="247" fill="none" xmlns="http://www.w3.org/2000/svg"><path d="M138.251 164.609c-2.174 9.082-10.147 15.642-19.896 15.642-4.43 0-8.697-1.412-12.23-4.011-3.146 5.24-8.243 8.662-14.135 9.64l16.455 57.071c.569 2.102 2.48 3.589 4.647 3.692h.31c2.066 0 3.974-1.231 4.749-3.127l8.932-21.431 21.578 8.871c.62.255 1.291.358 1.961.358h.104c2.839 0 5.161-2.256 5.161-5.126 0-.82-.205-1.64-.566-2.307l-17.07-59.272zm-67.364 11.626a20.367 20.367 0 01-12.199 4.015c-9.766 0-17.752-6.553-19.938-15.529l-17.33 60.082c-.516 1.898.05 3.948 1.547 5.23 1.446 1.332 3.563 1.64 5.42.923l21.526-8.871 8.982 21.431c.773 1.896 2.684 3.127 4.75 3.127h.31c2.167-.103 4.027-1.589 4.645-3.692l16.456-57.082c-5.92-1-11.114-4.495-14.167-9.636v.002z" fill="#D20032"/><path d="M176.793 88.225c0-4.05-2.376-7.639-6.142-9.28l-11.15-4.613 8.467-8.714c2.891-2.973 3.664-7.127 2.117-10.92-1.601-3.793-5.11-6.204-9.24-6.254l-12.079-.05 4.439-11.279c1.24-3.127.877-6.612-1.032-9.38-2.632-3.847-7.796-5.487-12.182-3.743l-11.201 4.563-.206-12.1c-.104-5.589-4.594-9.998-10.219-9.998-2.633 0-5.11 1.025-7.072 2.87l-8.569 8.459-4.86-11.127C96.214 2.914 92.65.557 88.522.557s-7.742 2.357-9.343 6.102L74.48 17.733l-8.776-8.41c-1.91-1.844-4.388-2.869-7.021-2.869-5.626 0-10.169 4.41-10.273 10l-.051 11.997-11.305-4.46c-4.388-1.744-9.55-.103-12.182 3.743-1.91 2.768-2.322 6.253-1.084 9.38l4.594 11.125-12.182.205c-4.129.05-7.64 2.46-9.24 6.253-1.6 3.794-.774 7.947 2.067 10.92l8.517 8.51-11.15 4.818c-3.82 1.64-6.142 5.23-6.142 9.28 0 4.101 2.323 7.69 6.142 9.33l11.099 4.614-8.467 8.714c-2.838 2.922-3.664 7.127-2.066 10.92 1.601 3.793 5.11 6.153 9.24 6.256l12.08.05-4.49 11.279c-1.24 3.076-.827 6.614 1.084 9.381 2.633 3.846 7.793 5.433 12.182 3.742l11.15-4.558.205 12.101c.105 5.587 4.595 9.946 10.274 9.946 2.632 0 5.11-.974 7.02-2.819l8.569-8.46 4.904 11.125c1.6 3.743 5.214 6.1 9.343 6.1 4.13 0 7.692-2.359 9.343-6.102l4.645-11.074 8.776 8.409c1.962 1.847 4.44 2.819 7.072 2.819 5.626 0 10.119-4.358 10.22-9.946l.051-11.997 11.356 4.459c1.187.462 2.478.717 3.768.717 3.357 0 6.505-1.693 8.414-4.459a9.975 9.975 0 001.032-9.381l-4.595-11.125 12.235-.205c4.079-.103 7.641-2.46 9.24-6.256 1.549-3.793.775-7.997-2.117-10.92l-8.517-8.509 11.201-4.82c3.772-1.639 6.148-5.23 6.148-9.33zM88.52 134.37c-25.603 0-46.457-20.662-46.457-46.141 0-25.43 20.854-46.142 46.457-46.142s46.457 20.712 46.457 46.142c.003 25.479-20.854 46.141-46.457 46.141z" fill="#BF0A20"/></svg>