<svg width="179" height="163" fill="none" xmlns="http://www.w3.org/2000/svg"><path d="M112.426 126.083c13.848-16.494 37.414-21.332 58.215-18.149l4.347.663-2.654 3.419c-13.251 17.054-37.687 22.346-58.402 18.203l-4.266-.851 2.76-3.285zm6.135-122.997c14.585 11.558 23.3 30.723 19.681 49.155l-.793 4.042-3.355-2.447c-14.956-10.903-25.059-31.144-19.715-49.443l1.097-3.75 3.085 2.443z" fill="#BF0A20"/><path d="M177.676 62.536c-2.834 20.177-17.297 40.651-37.921 45.212l-3.821.848.698-3.864c3.671-20.241 17.752-38.741 37.681-45.046l3.939-1.25-.576 4.1zm-21.803-44.754c7.629 17.733 5.312 39.182-6.457 54.535l-2.765 3.603-1.708-4.215c-7.193-17.795-5.4-39.155 6.488-54.49l2.698-3.48 1.744 4.047zm-128.801-.569c11.893 15.335 13.681 36.694 6.489 54.49l-1.707 4.217-2.764-3.603c-11.77-15.352-14.087-36.803-6.458-54.535l1.744-4.047 2.696 3.478zm37.503 113.006c-20.715 4.143-45.153-1.147-58.4-18.204l-2.656-3.419 4.346-.663c20.804-3.18 44.367 1.656 58.217 18.15l2.758 3.284-4.265.852z" fill="#BF0A20"/><path d="M64.126 4.394c5.346 18.297-4.754 38.539-19.712 49.443l-3.36 2.446-.792-4.042c-3.616-18.43 5.097-37.596 19.684-49.154L63.032.643l1.094 3.75zM4.194 59.688c19.925 6.307 34.01 24.805 37.68 45.047l.699 3.863-3.823-.847C18.123 103.193 3.66 82.717.829 62.538l-.577-4.101 3.942 1.251zm99.488 85.119c3.347 3.585 6.825 7.034 10.84 9.761l2.765 1.87-2.478 2.247c-1.025.926-2.035 1.86-3.042 2.803l-1.244 1.163-1.559-.68c-9.568-4.159-12.284-14.505-19.714-19.387-7.428 4.882-10.143 15.228-19.71 19.389l-1.564.68-1.243-1.165a229.452 229.452 0 00-3.038-2.802l-2.476-2.246 2.763-1.87c4.014-2.728 7.492-6.178 10.84-9.761-4.586 2.285-9.138 4.919-14.359 5.905-9.323 1.577-19.301 2.14-28.165-1.754l-4.284-1.879 3.848-2.673c8.764-6.088 18.17-11.762 29.073-12.634 8.58-.474 17.277-.261 25.687 1.69l.108.025.109.037a7.736 7.736 0 004.832 0l.107-.037.111-.025c8.404-1.951 17.103-2.164 25.715-1.69 10.876.873 20.28 6.549 29.041 12.634l3.847 2.673-4.283 1.879c-8.864 3.897-18.842 3.332-28.189 1.751-5.209-.986-9.757-3.619-14.337-5.904h-.001z" fill="#BF0A20"/></svg>