<svg width="153" height="144" fill="none" xmlns="http://www.w3.org/2000/svg"><path d="M135.468 76.533c-1.267-1.155-3.483-1.155-4.434.384-.949 1.541-.949 4.236.316 5.393l15.517 15.406c1.267 1.541 3.483 1.155 4.434-.384.949-1.541.949-4.236-.316-5.393l-15.517-15.406zm13.617-19.262h-15.517c-1.9 0-3.167 1.54-3.167 3.852 0 2.311 1.267 3.852 3.167 3.852l15.517-.002c1.9 0 3.167-1.54 3.167-3.852 0-2.31-1.267-3.85-3.167-3.85zm-13.617-11.937l15.517-15.406c1.266-1.155 1.582-3.852.316-5.393-.95-1.54-3.167-1.925-4.434-.384L131.35 39.557c-1.267 1.155-1.583 3.852-.316 5.393 1.267 1.54 3.167 1.925 4.434.384zM36.982 93.862H21.15l-4.75 40.055c-.634 5.393 2.85 10.014 7.283 10.014H34.45c4.434 0 7.917-4.623 7.283-10.014l-4.75-40.055z" fill="#BF0A20"/><path d="M112.352 43.407V.653l-70.618 37.36H19.567c-1.9 0-3.483 1.925-3.483 4.236v.77H7.535c-4.116 0-7.283 3.852-7.283 8.859v21.57c0 5.006 3.167 8.858 7.283 8.858h8.55v.77c0 2.311 1.582 4.236 3.482 4.236h22.167l70.618 37.36V81.918c8.867 0 15.834-8.472 15.834-19.258 0-10.783-6.966-19.256-15.834-19.256v.003z" fill="#BF0A20"/></svg>