<svg width="191" height="137" fill="none" xmlns="http://www.w3.org/2000/svg"><path d="M190.919 119.541v16.795H.252v-16.795h190.667zm-15.181-19.912v16.782H15.434V99.629h160.304zm-15.194-19.925v16.795H30.628V79.704h129.916zm-15.182-19.908V76.59H45.81V59.796h99.552zM68.598 39.884h53.987v16.783H68.598V39.884zm44.766-26.031l-10.067 7.311a1.571 1.571 0 00-.572 1.75l3.849 11.842-10.067-7.311a1.565 1.565 0 00-1.838 0l-10.067 7.311 3.848-11.842a1.564 1.564 0 00-.572-1.75l-10.067-7.311h12.44a1.56 1.56 0 001.489-1.08L95.588.931l3.848 11.842a1.56 1.56 0 001.489 1.08h12.439z" fill="#BF0A20"/></svg>