<svg width="364" height="301" fill="none" xmlns="http://www.w3.org/2000/svg"><path d="M273.285 39.804c-7.852 9.002-12.846 20.31-19.983 29.89-6.919 8.575-11.831 17.59-12.881 29.129-1.12 10.893.632 21.153 4.251 30.56 1.845 5.026 4.265 9.338 6.686 13.649 2.352 3.666 4.127 8.047 7.344 10.641l.069.646c-.093 5.233 1.394 9.971 2.524 14.421 1.198 5.095 2.466 10.836 2.731 16.358-10.93-10.583-21.282-21.881-32.211-32.465-3.643-3.528-7.575-6.698-11.148-9.58-6.939-22.111-13.59-44.58-19.595-67.116 2.33-8.738 2.077-17.2 1.178-25.592-1.186-8.035-2.373-16.07-6.293-22.18-8.265-13.153-22.93-22.03-36.246-27.461-.715-.577-1.223.783-1.153 1.429 7.043 13.937 10.42 30.226 15.595 45.017 4.68 13.21 11.504 28.151 25.409 29.928 5.866 21.246 12.09 42.78 18.603 63.957-8.508-6.272-17.593-11.829-27.035-17.674-9.8-6.134-19.38-13.27-28.961-20.407l-.357-.288c-3.217-2.594-6.722-4.83-10.296-7.713.289-.357-.069-.645-.138-1.29-10.779-12.233-18.964-27.68-32.914-35.982l.289-.357c3.368-17.337-10.282-28.935-20-37.363C86.531 9.516 72.292 1.572 55.943 1.363c-.645.07-1.222.784-.864 1.072 3.193 8.473 7.965 16.45 12.957 23.425 5.06 7.62 9.764 14.953 15.401 21.858 7.206 9.35 21.64 22.17 33.873 11.393l.358.288c12.52 7.148 20.209 21.017 29.916 32.384l-2.859-2.306c-12.37-8.797-25.317-16.879-39.718-20.235-17.12-4.37-35.487-2.078-51.882-8.811-.069-.646-.426-.934-.715-.577C39.707 44.89 20.58 40.082 2.525 36.138c-.357-.289-.646.069-.646.069-.357-.289-1.29.138-1.222.783.806 13.626 9.81 21.477 19.471 26.32 4.866 2.744 10.446 6.064 16.902 5.373 5.166-.553 10.7-3.757 15.231-7.18l.358.288c.357.288.357.288 1.003.22 13.673 5.718 29.238 4.705 44.215 7.346 19.277 3.16 35.729 13.479 51.028 25.227 3.216 2.594 6.721 4.83 9.58 7.137-6.306-.958-12.463-3.564-18.77-4.521-6.952-.888-14.342.23-21.376 1.635-6.986-10.352-18.953-12.336-30.737-6.504-6.826 3.342-13.225 7.618-19.981 11.606-7.691 4.415-15.094 8.472-22.853 12.241-.646.069-.796 1.717-.15 1.648 7.09 2.18 14.469 4.002 21.202 5.893 5.73 1.672 10.965 1.765 17.214-.863 11.922-4.541 24.639-10.8 33.507-22.522 7.967-1.833 16.003-3.02 23.958-1.912 6.953.888 13.178 4.14 20.707 4.313 9.58 7.137 19.518 14.561 29.675 20.983 10.157 6.422 20.026 13.201 29.676 20.983 0 0 .357.288.069.646.069.645.714.576 1.003.219 3.931 3.17 8.22 6.629 11.574 10.514 5.43 4.969 10.572 10.295 15.357 15.333-10.331 1.106-19.935-.151-29.389-3.057-6.929-6.768-14.215-13.823-21.432-20.233-7.574-6.698-14.941-11.46-24.683-14.008-8.382-2.042-16.626-2.792-25.527-.533l-15.288 3.595c-4.451 1.13-9.547 2.328-14.286 3.815-.645.069-.864 1.072-.15 1.648 15.137 16.336 29.767 34.033 51.903 39.499 9.385 2.26 18.851 2.226 28.686-.459 4.45-1.129 8.831-2.904 13.144-5.325 2.156-1.21 6.249-2.627 7.264-5.348 2.721 1.015 5.73 1.672 9.027 1.972-9.997 7.273-21.077 16.621-32.273 18.799l-.288.357c-20.061-4.382-41.875-.741-61.65 12.802-1.084 2.075-.657 3.009-.3 3.297 6.376 1.603 12.752 3.206 19.058 4.163 5.016 1.096 10.319 1.834 16.061.567 8.901-2.259 21.33-8.16 26.819-17.889 11.841-2.247 23.141-12.598 33.495-19.583l.577-.714c6.307.957 13.19 1.2 19.935.151 4.784 5.038 9.926 10.364 14.998 15.045l.358.288c-7.091-2.179-14.055-.128-20.454 4.149-7.091-2.18-14.62-2.353-21.734 1.346-7.69 4.415-14.389 11.988-20.87 18.558-15.047 14.996-30.025 30.638-42.859 48.009-.577.715.138 1.291.784 1.222 17.433-1.866 33.378-8.47 49.198-19.304 7.91-5.418 16.396-11.55 23.164-18.477 6.769-6.928 8.822-18.248 10.725-27.919 8.556-5.487 17.099-8.034 27.049-3.549 12.578 10.734 27.531 19.254 38.667 31.774 10.779 12.232 17.961 27.461 26.365 41.906-6.791-5.477-10.272-13.592-16.197-20.141-2.362-19.009-20.198-23.956-34.679-25.018-16.13-1.212-34.635-.21-47.25 16.158-.288.357-.15 1.648.496 1.579 14.562-1.232 27.59 4.556 41.933 4.327 3.585-.058 7.459-.472 10.538.831 3.366.945 6.156 2.605 9.523 3.551 5.73 1.672 11.61 1.696 17.352.428 2.213 2.375 4.496 5.395 6.49 8.773 3.631 6.468 7.689 13.869 14.999 15.045 6.34 10.422 13.545 19.771 23.056 26.262 1.43 1.153 3.091-1.636 2.018-2.501-23.23-18.735-32.278-51.393-51.98-73.77 2.387-5.153 1.834-10.317.635-15.413-.564-2.225-1.129-4.45-2.051-6.963 2.537-6.801.924-15.769.521-22.582-.253-8.462-1.152-16.854-2.984-24.82-1.833-7.966-4.888-15.148-8.807-21.258-4.992-6.974-10.56-13.234-16.128-19.494 2.744-4.865 2.837-10.098 2.641-14.975-.403-6.812-1.094-13.268-1.785-19.724-1.74-13.199-4.414-25.972-7.952-37.673-1.072-.864-1.43-1.153-1.718-.795zm-100.538.314c-3.965-12.635-7.284-25.339-12.76-36.832 12.313 5.211 24.903 13.005 33.03 24.868 4.277 6.398 5.752 14.076 6.651 22.468 1.117 7.39.944 14.917-.809 22.94-4.161-17.511-16.231-29.605-21.326-46.69 1.613 8.97 6.248 15.656 10.305 23.057 4.416 7.69 7.897 15.805 10.802 24.636 0 0-.289.357.069.645-14.331-2.71-21.213-21.235-25.962-35.092zM97.665 58.602c-6.94-3.828-12.22-10.445-16.855-17.132-8.484-12.15-17.903-23.875-23.655-37.95 14.412.416 27.22 7.207 38.657 16.43 10.007 8.07 25.018 20.176 21.649 37.513-9.914-13.304-25.594-19.46-36.373-31.693l-.288.358c4.704 7.332 12.001 11.448 18.434 16.636 6.364 4.542 11.506 9.869 17.005 15.483-6.042 4.564-13.351 3.388-18.574.356zm-60.127 8.72c-6.1.98-11.322-2.052-16.187-4.796-9.016-4.912-18.597-12.048-19.622-24.67 17.41 4.012 35.176 8.314 47.742 21.986-.288.358-.219 1.003.139 1.292-3.598 2.996-7.91 5.417-12.072 6.189zm45.675 54.531c-7.183 3.054-13.132 2.385-19.865.494-5.73-1.672-11.103-3.056-16.833-4.728 11.783-5.832 23.14-12.598 34.786-19.72 5.823-3.562 12.649-6.905 18.886-6.593 6.238.312 11.46 3.344 15.599 8.451l-.288.357-.577.715c-6.318 1.982-12.994 3.676-19.093 4.656-6.457.691-13.27 1.094-19.451 4.367 0 0-.288.357 0 0 12.568-4.61 25.469-3.053 37.968-8.308-9.006 10.432-20.501 15.906-31.132 20.309zm81.103 89.589c-10.043.748-19.566-2.803-28.951-5.064 18.264-12.402 39.145-15.616 57.845-11.741-5.42 10.374-19.786 16.483-28.894 16.805zm40.863-33.104c-4.381 1.774-9.12 3.261-13.282 4.033-9.616 1.682-19.508.782-28.028-2.55-18.332-6.526-31.105-22.136-44.386-36.385 4.382-1.775 8.901-2.259 13.352-3.388 4.45-1.129 9.189-2.616 13.997-3.457 9.904-2.04 18.793-1.359 28.247 1.547 16.833 4.728 28.891 19.761 41.608 31.785l-.289.358c-11.829-.693-22.793-2.458-33.896-5.513-10.457-3.125-20.983-6.896-32.317-6.009 0 0-.288.357 0 0 23.232.451 43.546 13.295 67.285 12.386-1.153 1.43-4.243 3.066-5.465 3.85-2.444 1.568-4.6 2.778-6.826 3.343zm31.554 35.473c-1.673 5.729-4.844 9.66-9.306 13.729-7.195 5.993-14.102 11.63-21.723 16.69-14.597 10.051-29.033 15.514-44.817 17.53 11.75-15.297 24.641-29.083 37.89-42.58 6.192-6.213 12.026-12.714 18.645-17.993 8.129-6.421 16.165-7.607 24.547-5.566-15.82 10.834-30.107 32.932-45.338 40.112-.288.358-.219 1.003.069.646 10.412-3.4 18.633-15.054 26.981-22.477 5.616-5.498 11.3-10.351 16.765-14.201-1.164 4.369-2.26 9.384-3.713 14.11zm58.671 32.571c-2.721-1.015-5.511-2.675-8.809-2.975-3.009-.657-6.525.045-9.823-.255-13.409-.197-25.653-4.763-38.992-4.314 11.888-14.005 28.456-14.799 43.225-14.095 13.836 1.131 31.176 4.499 34.622 21.433-1.073-.865-1.856-2.087-2.929-2.951-8.22-6.629-18.677-9.754-29.503-10.228l-.288.357c12.394 2.918 22.92 6.688 30.99 14.966-5.742 1.268-12.048.31-18.493-1.938zm13.722-24.322c-11.851-13.097-27.45-21.548-40.454-33.215-1.072-.865-2.145-1.73-2.929-2.952-.195-4.876-1.036-9.683-1.878-14.49-1.267-5.741-3.896-11.989-3.226-17.937.288-.358.576-.715.219-1.003.288-.358.288-.358.219-1.003.484 4.519 1.832 7.966 3.608 12.346 3.054 7.182 5.463 14.433 9.452 21.189 7.193 12.289 18.999 18.861 33.204 17.341l-.289.357c-.576.715.496 1.579 1.073.865 1.556 5.383 3.607 12.346 1.001 18.502zm-4.456-69.063c1.763 7.32 2.593 15.067 3.134 23.171.415 3.873.184 7.816.599 11.689.057 3.585.472 7.458-.474 10.824-.922-2.513-2.202-5.314-3.124-7.827-2.559-5.603-5.337-10.203-9.118-15.022-3.424-4.53-6.917-9.707-7.609-16.162-.138-1.291-1.717-.796-1.579.495 1.463 10.618 8.323 16.739 13.095 24.717 3.136 4.888 5.049 10.56 6.605 15.943-14.135 2.166-25.364-5.12-32.915-17.698-3.205-5.533-5.545-12.139-8.173-18.387-2.271-5.96-4.541-11.92-4.01-19.159 1.176-7.309-.299-14.986-.056-21.868.3-3.297.312-6.237.612-9.534l.45-4.945c.081-2.294-.484-4.519 3.171-3.931 2.006.439 4.577 3.102 6.295 3.897 2.432 1.372 4.934 3.39 7.366 4.762l.358.288c10.71 11.586 21.282 21.881 25.373 38.747zm-22.558-61.249c.334 6.168 1.809 13.845-1.8 19.782-.358-.289-.646.069-.646.069-2.433-1.372-4.577-3.102-7.367-4.762-1.787-1.441-4.715-4.392-7.009-4.473-3.298-.3-3.102 4.576-3.76 7.585-.888 6.951-1.488 13.545-1.085 20.357-.243 6.882 1.163 13.915-1.017 21.004l-.576.715c-2.859-2.306-4.635-6.687-6.629-10.065-2.421-4.311-4.842-8.623-6.328-13.361-3.62-9.407-5.729-19.955-3.964-30.917.738-5.303 2.122-10.675 4.579-15.182 2.387-5.153 5.915-8.795 9.017-13.371 6.273-8.507 10.759-18.455 17.389-26.674 3.112 10.767 5.29 21.96 7.18 33.512.841 4.807 1.463 10.617 2.016 15.781z" fill="#FF0054"/></svg>