<svg width="391" height="621" fill="none" xmlns="http://www.w3.org/2000/svg"><path d="M308.004 1.432c6.593 15.039 6.57 33.927 11.225 49.974 5.172 17.83 13.73 33.489 18.902 51.318 5.172 17.83 5.795 36.382 3.161 54.986-1.472 9.792-3.281 18.939-5.735 28.422-1.059 5.064-2.609 9.973-4.16 14.882-1.705 5.4-5.633 14.418-2.944 19.586.336.646.026 1.628-.129 2.118 2.459 21.292.678 42.325-2.886 63.874l1.86-5.891 9.456-29.946c5.763-16.536 13.825-31.806 25.223-42.243.801-.827 2.12.129 1.655 1.602-9.793 29.3-9.427 62.348-19.22 91.648-8.397 24.881-21.577 46.093-38.273 61.336-3.256 10.309-6.511 20.618-10.594 30.127-2.042 4.754-4.729 9.844-7.262 14.443 1.603-1.654 3.36-3.798 4.471-5.607 2.869-3.953 6.229-7.751 9.097-11.704 4.782-6.588 9.563-13.176 13.361-20.075 7.934-13.151 14.369-28.395 25.611-38.341 10.442-9.12 18.247-20.152 25.844-33.949 6.642-12.479 13.283-24.959 22.407-35.034.801-.827 1.964.62 1.654 1.602-8.68 37.749-17.851 75.343-39.716 103.531-17.548 23.071-40.112 38.081-64.46 43.349l-.646.336c-6.022 10.515-12.534 20.876-18.4 30.9-3.024 4.444-5.712 9.534-8.735 13.978 12.122-5.89 21.193-19.221 32.462-27.54 6.927-4.831 14.215-7.388 21.841-9.299 9.408-2.428 18.662-4.364 27.424-6.456.646-.336 1.318.956 1.163 1.447-4.081 19.766-17.417 31.211-31.504 36.48-18.455 7.129-37.971 9.065-56.969 12.783-10.182 15.14-21.037 28.988-32.9 40.899 1.293-.672 2.43-.853 3.567-1.033.492.155 1.138-.181 1.138-.181.155-.491.801-.827 1.292-.672 5.558 1.215 12.458-5.243 16.645-8.24 4.679-2.842 10.003-6.019 14.681-8.861 8.711-5.347 17.576-11.186 26.777-16.378 17.912-10.54 36.729-15.395 54.977-25.289.646-.336 1.964.62 1.499 2.093-9.819 27.672-29.746 44.594-51.121 52.42-12.149 4.262-24.323 6.896-36.678 8.393-6.178.748-12.847 1.342-18.896-.028-4.575-.905-8.323-1.009-12.691.851-1.784.516-3.076 1.188-4.704 1.213-3.851 3.643-8.193 7.131-12.38 10.128 1.473.465 3.748.103 4.73.414 3.593.594 6.85.543 10.598.647 5.376.078 10.417-.49 16.103-1.393 10.081-1.136 20.162-2.271 30.45-.642 17.965 2.974 34.897 12.64 47.384 29.54.672 1.292-.284 2.61-1.266 2.299-11.349-6.823-24.092-9.227-36.267-6.593-10.545 2.608-20.729 7.49-31.327 6.843-9.616-.337-19.775-4.085-29.288-8.169-8.194-3.128-15.277-8.064-20.784-16.281-11.45 7.181-22.771 12.244-34.919 16.506 3.438 1.086 6.23 2.507 9.358 4.575.801-.827 1.783-.517 1.809 1.111 2.301 1.267 4.447 3.024 6.747 4.29 3.205-3.307 5.427-6.924 9.641-8.293 2.429-.852 5.04-.567 7.005.053.129-2.119 2.377-4.108 3.851-3.643 1.964.621 3.464 2.714 3.18 5.323-.284 2.61-2.042 4.754-4.006 4.134-.983-.31-2.301-1.266-2.973-2.558-2.947-.931-5.403-1.706-8.634-.027-2.584 1.343-4.006 4.133-6.254 6.123 6.411 3.644 12.796 5.66 18.405 10.131.284-2.61 2.223-3.617 4.187-2.997 1.81 1.111 2.198 5.013.596 6.667-1.603 1.653-3.903.387-4.757-2.042-2.636-1.913-5.764-3.98-8.711-4.911.517 1.783.543 3.411.569 5.039-.284 2.61.078 4.883 1.578 6.977.672 1.292 1.99 2.248 2.818 3.049.801-.827 1.602-1.654 2.584-1.343 1.474.465 2.482 2.403 2.353 4.522-.129 2.118-1.731 3.772-3.205 3.307-1.473-.466-2.481-2.404-2.353-4.522-1.809-1.112-4.11-2.378-5.454-4.962-2.017-3.876.516-8.475-1.992-12.506l-.336-.647c-2.792-1.421-6.23-2.507-9.513-4.083-2.301-1.267-5.093-2.688-7.238-4.446-.206 7.494 1.527 13.979 4.552 19.794 1.447-1.163 3.075-1.189 4.575.905.491.155.336.646.672 1.292 1.009 1.938.725 4.547-.723 5.71-1.447 1.162-3.567 1.033-4.575-.905l-.672-1.292c-.673-1.292-.699-2.92-.389-3.902-4.007-6.124-6.257-14.393-5.896-22.377-2.792-1.422-5.92-3.489-8.867-4.42-.31.982-.62 1.964-.439 3.101-.129 2.119-.749 4.082-.878 6.201-.31.982-1.292.672-1.473-.465.129-2.119.413-4.729 1.033-6.692.31-.982.129-2.119.439-3.101l-2.947-.93-.491-.156c-13.286 4.443-26.597 7.258-40.09 8.935-7.315.93-14.63 1.859-21.79 2.297 3.93 1.241 8.505 2.146 12.124 4.369 1.318.956 3.128 2.067 4.291 3.514 31.561-2.45 76.901 11.328 87.556 56.263.518 1.783-1.421 2.79-1.938 1.007-4.267-12.144-14.607-17.029-23.939-19.976-11.141-4.058-22.437-7.626-33.733-11.193-8.35-2.637-16.053-5.609-22.051-13.982-2.172-3.385-4.343-6.77-7.161-9.819-.491-.155-.491-.155-1.138.18-1.137.181-1.163-1.447-1.008-1.938-.827-.801-2.146-1.757-2.973-2.558-4.601-2.533-9.823-3.102-14.915-5.79-.491-.155-.336-.646-.828-.801-18.714 1.109-37.118 1.235-55.289 5.755 4.265 1.887 9.022 3.928 13.287 5.815 1.965.621 3.774 1.732 5.584 2.843 0 0 .155-.491.646-.336 17.835-5.165 36.265-3.664 53.352 5.511 18.069 9.485 30.919 28.659 47.567 40.935.827.801.698 2.92-.284 2.61-23.497-2.561-47.64-4.787-70.44-14.686-8.53-3.774-16.44-9.511-22.283-18.374-4.499-6.28-6.386-12.275-12.952-15.428-6.075-2.998-12.305-5.505-18.535-8.012-7.625 1.911-15.069 4.959-22.177 8.653-2.74 1.834-4.627-4.161-1.888-5.995 18.713-11.367 39.211-12.992 59.554-14.126 2.325-7.364 7.003-10.205 12.354-11.755 4.47-15.865 14.549-27.258 25.818-35.577 13.672-10.799 28.508-20.15 43.525-28.365 1.292-.672 1.809 1.111 1.499 2.093-8.992 18.215-19.64 34.828-33.131 46.764-6.591 5.477-13.518 10.308-20.316 13.02-4.213 1.369-9.408 2.428-14.603 3.486l-.156.491c-.31.982-1.447 1.163-1.783.517-4.213 1.369-7.754 4.03-9.795 8.784 7.65-.283 15.793-.412 23.6-1.186 8.296-.619 16.749-1.729 24.71-2.994 8.322-9.249 14.989-20.1 20.494-32.399 4.547-10.981 8.268-22.763 12.816-33.744 8.321-19.507 21.295-33.226 37.837-37.719 1.138-.181 1.655 1.602.854 2.428-6.513 10.361-12.198 21.523-17.056 33.485-4.548 10.981-7.777 22.918-12.661 33.253-6.616 14.107-15.894 24.674-26.362 32.166 9.254-1.937 18.662-4.364 27.735-7.438 9.278-10.567 18.039-22.916 24.991-36.378 2.687-5.089 4.237-9.999 7.261-14.442-1.192-23.591 7.103-44.727 16.069-64.57 10.389-22.633 19.484-44.595 26.253-69.451.465-1.473 1.939-1.007 2.12.13.182 11.394 1.011 22.454 1.193 33.849.648 9.922.649 20.18-1.469 30.308-3.797 17.157-13.179 31.47-21.758 44.957-4.29 6.743-9.072 13.332-14.034 18.783-3.205 3.307-6.099 5.632-8.477 9.74-2.222 3.617-3.618 8.036-5.995 12.144-5.995 12.143-13.309 23.33-21.786 33.07l13.104-5.579c23.444-10.953 44.017-28.21 61.901-50.636.645-10.594 1.626-20.542 2.762-30.98 1.162-8.811 3.694-13.41 6.175-21.265l-.491-.155c-1.81-1.111-2.663-3.54-2.043-5.504.284-2.61 2.869-3.953 4.678-2.842 1.81 1.112 2.508 4.032 1.888 5.995-.62 1.964-1.913 2.636-3.541 2.661-.439 3.101-.155.491-1.55 4.909-2.016 6.382-3.566 11.291-4.263 18.63-.284 2.609-.568 5.219-.516 8.475 2.223-3.617 3.954-7.39 5.84-11.653.31-.982.621-1.964 1.267-2.299 1.266-2.3 2.532-4.599 4.29-6.744-.828-.801-1.5-2.093-2.017-3.876-.181-1.137.439-3.1.904-4.573.801-.827 1.602-1.654 2.249-1.989 1.938-1.008 4.575.904 5.428 3.333 1.035 3.566-.542 6.848-2.971 7.7-.646.336-1.138.181-1.629.026.233 4.392-.723 5.71-1.188 7.183l1.474.465c1.809 1.111 2.817 3.049 2.042 5.504-.775 2.454-2.222 3.617-3.851 3.643-1.783.516-3.101-.44-4.11-2.378-1.731 3.772-3.954 7.389-6.667 10.851-.413 4.729-.981 9.948-1.394 14.677 3.67-4.78 7.34-9.56 10.673-14.985 4.781-6.589 9.226-13.823 13.671-21.057-.491-.155-1.318-.957-1.008-1.938 4.238-9.999 3.9-20.903 4.209-32.143.335-9.612 2.143-18.759 3.615-28.552-5.223-10.827-10.937-21.809-16.159-32.636-5.714-10.983-11.583-21.474-15.204-33.955-2.069-7.131-2.845-14.935-4.423-21.911-1.578-6.977-3.646-14.109-5.715-21.241-4.81-15.555-14.608-27.287-23.915-38.865-.827-.801-.207-2.764.775-2.454 31.717 7.316 51.445 49.178 63.263 85.302 6.671 19.923 8.767 38.941 4.712 60.335-1.937 11.265-4.366 22.375-4.829 34.106-.645 10.594-.644 20.852-3.744 30.67 15.402-24.829 29.796-51.596 38.762-81.697 4.78-16.846 9.559-33.692 13.512-51.34-.646.336-1.629.026-1.319-.956-.002-20.516-6.932-36.201-15.826-52.507-7.885-14.367-13.833-29.742-17.686-46.615-8.199-33.902-7.17-71.368 4.535-103.303.466-1.473 2.43-.853 1.81 1.111-8.603 32.375 10.58 60.568 18.209 89.431 7.267 26.589 7.245 55.735 7.042 83.744l-.31.982c2.25 8.269 3.854 16.873 3.829 25.503 5.916-27.285 9.376-55.345 7.278-84.621-.336-.646-.026-1.628-.362-2.274.155-.491-.336-.646-.181-1.137-.491-.155-.828-.801-.673-1.292.981-9.947-1.45-19.353-4.372-28.914-2.741-8.424-4.836-17.183-7.577-25.607-4.318-15.401-7.5-30.982-7.269-47.105.179-9.121 1.678-17.286 2.348-26.252 1.136-10.439.334-19.87-1.141-30.594-2.561-17.544-3.003-34.96-1.17-52.737 1.628-.025 2.921-.697 3.593.595zm-56.775 503.049a180.617 180.617 0 0034.585-6.895c21.22-7.335 41.664-22.474 52.155-48.854-18.247 9.894-37.711 15.085-55.777 26.116-9.512 6.174-19.359 11.702-28.871 17.876-5.324 3.178-10.648 6.355-15.482 9.688-1.292.672-2.584 1.343-3.386 2.17 5.377.078 10.753.156 16.776-.101zM112.69 570.326c4.498 6.279 8.324 11.267 14.399 14.265 6.075 2.998 13.106 4.678 19.491 6.694 10.314 3.258 20.783 6.024 30.632 10.753 4.756 2.042 9.202 5.066 12.693 9.407-13.911-34.625-52.039-45.586-80.033-44.169 1.318.957 1.99 2.249 2.818 3.05zm-47.223 21.259c4.473 4.651 9.41 7.83 14.658 10.027 21.171 9.925 44.176 12.331 66.691 14.582-13.701-11.345-25.025-26.798-39.993-35.844-16.777-10.157-35.88-12.95-54.205-7.939.827.801 1.99 2.248 2.663 3.54 3.025 5.814 5.559 11.473 10.186 15.634zm14.313-52.167c9.254-1.937 17.5-5.811 25.873-11.805 14.319-11.134 25.949-27.437 35.588-45.988-12.588 7.362-24.684 14.88-36.754 24.025-11.269 8.319-22.175 18.911-27.136 34.62.646-.335 1.292-.671 2.43-.852zm128.122-75.613c8.58-13.487 18.762-28.627 23.542-45.474 2.919-10.955 2.246-22.505 1.572-34.055-.13-8.139-.907-15.943-1.037-24.082-5.555 19.301-12.273 37.155-20.465 54.543-9.923 21.161-20.156 43.303-19.739 69.349 0 0 .155-.491.646-.336 5.272-6.433 10.545-12.866 15.481-19.945zm-50.658 40.689c7.338-19.817 14.03-39.299 24.833-56.403-18.791 6.483-30.059 25.06-38.327 47.823-7.184 19.326-14.393 37.025-26.54 51.545 1.629-.026 3.412-.542 4.549-.723 15.663-8.551 27.5-22.089 35.485-42.242zm38.93 20.392c6.826 9.174 15.692 13.593 24.869 17.031 10.65 3.903 21.455 7.315 32.492 4.862 10.391-2.117 19.929-6.664 30.345-7.153 8.143-.128 15.82 1.216 23.213 5.171-13.779-16.229-32.96-23.906-51.209-24.27-11.244-.311-22.126 1.651-33.189 2.476-4.886.077-9.771.154-14.992-.415-1.474-.465-4.24-.259-6.204-.879-.646.336-1.448 1.162-2.094 1.498-1.137.181-2.429.852-3.231 1.679zm143.239-108.091c-16.879 3.848-36.394 5.783-51.178 18.391-10.441 9.12-19.694 21.314-31.997 26.067 15.586-3.176 31.509-5.706 46.759-9.528 15.56-4.804 31.533-14.337 36.416-34.93zm-65.484-71.427c-.647-9.922-2.923-19.819-6.001-28.888-10.809-34.187-29.373-74.601-58.196-84.243 6.981 8.683 13.961 17.366 18.537 28.529 5.922 13.747 8.457 29.664 11.793 44.754 3.156 13.954 9.206 25.582 15.256 37.21 5.223 10.827 10.937 21.81 16.159 32.637 2.119-10.129 3.591-19.921 2.452-29.999zm77.988 18.149c19.124-26.353 28.347-60.691 35.942-95.004-8.787 10.722-15.092 23.847-22.225 36.171-3.488 5.917-6.822 11.342-10.647 16.613-4.626 6.097-10.907 10.593-16.36 15.889-6.1 5.632-9.381 14.313-13.981 22.039-4.6 7.725-9.2 15.45-14.291 23.02-4.29 6.743-8.917 12.841-14.034 18.783-1.757 2.144-3.023 4.444-4.781 6.588 23.03-6.224 44.121-21.699 60.377-44.099zM302.29 183.724c-7.189-21.705-18.617-43.67-17.535-67.622-8.293 31.393-7.409 66.224 1.719 97.18 4.836 17.183 12.722 31.551 20.452 46.409 2.017 3.876 3.543 7.597 4.913 11.809.823-29.973.173-60.411-9.549-87.776zm5.399 174.465c16.36-15.889 29.049-37.256 36.309-61.957 7.88-26.665 8.549-56.147 16.429-82.811-10.106 9.765-16.721 23.873-22.018 38.936-3.282 8.681-5.581 17.673-8.371 26.509l-3.876 12.273c-.155.491-2.042 4.754-3.127 8.191-.31.982-.775 2.454-.594 3.591.336.646.181 1.137.026 1.628-.155.491-.155.491-.646.336-2.144 8.501-3.797 17.157-6.433 25.502-2.79 8.837-5.245 18.319-7.699 27.802zm1.899-298.49c2.407 18.036-1.882 35.037-2.241 53.279-.024 18.888 4.993 37.209 9.829 54.392 3.621 12.481 9.051 26.073 9.44 40.232l.62-1.963c3.101-9.819 5.71-19.792 8.32-29.765 4.856-22.221 7.412-45.708 2.007-67.93-4.681-17.675-12.748-33.18-18.23-50.027-2.896-7.933-4.655-16.046-5.767-24.496-1.449-9.095-2.407-18.036-5.148-26.46-2.479 18.113-.745 34.857 1.17 52.738z" fill="#FF0054"/></svg>