<svg width="458" height="386" fill="none" xmlns="http://www.w3.org/2000/svg"><path d="M3.572 325.702c13.822-3.915 27.318-.697 40.314-.751 13.644-.024 27.318-.697 41.36-2.327 10.123-1.161 20.585-2.631 31.077-4.749 9.272-10.946 14.125-24.694 20.864-37.056 6.34-10.756 13.667-21.792 22.541-31.132 17.069-18.061 37.654-20.692 56.265-22.762.648.029.928 1.017.559 1.975-8.196 8.721-16.082 17.782-23.041 27.859-5.543 7.544-10.777 15.426-16.659 23.279s-12.692 14.688-20.4 19.858c-7.03 4.551-13.382 8.484-19.484 14.052 9.843-2.148 19.716-4.944 29.929-8.05 12.186-3.665 24.403-7.978 36.649-12.94 2.141-11.273 3.634-22.576 7.071-33.79 3.527-13.159 11.163-23.856 21.643-32.797 11.496-9.87 24.171-17.086 36.286-26.278 11.437-8.573 22.536-16.836 34.841-23.095 1.327-.589 1.267.708.559 1.975-8.284 10.667-15.921 21.363-24.206 32.03-3.788 4.7-7.886 9.061-11.336 13.451-4.805 5.628-7.696 11.993-11.544 17.99-6.31 10.107-13.268 20.185-21.434 28.258-6.471 6.526-14.798 11.018-20.96 17.883 12.586-5.271 25.201-11.191 38.155-17.42 26.276-13.415 51.066-29.823 76.474-45.553l.03-.649c2.73-9.946 7.095-20.143 11.77-30 4.335-9.549 8.052-19.775 12.078-29.662 4.395-10.845 9.1-21.351 14.452-31.827 5.662-10.137 11.913-18.948 18.842-28.377 3.449-4.391 6.251-8.81 8.743-13.57 2.521-5.408 4.395-10.845 6.268-16.282 3.378-9.918 8.053-19.775 13.346-28.954 7.476-14.278 18.074-25.813 30.469-34.017 3.11-4.081 6.869-8.133 10.937-11.845 1.356-1.237 1.916.738.56 1.975-2.712 2.475-5.086 4.64-7.149 7.145.987-.28 2.004-1.208 2.991-1.487.988-.28 1.267.707.898 1.665-6.339 10.756-11.353 20.923-16.057 31.429-4.705 10.506-6.167 21.16-8.279 31.785-3.794 18.995-7.028 39.965-15.051 59.091-7.684 18.817-21.732 34.743-35.411 49.711-13.37 15.307-28.007 29.906-43.204 42.53l-.678.619c-1.356 1.237-3.051 2.784-4.716 3.682 20.056-5.253 41.735-17.58 60.85-30.674 11.408-7.925 22.048-13.285 34.265-17.599 5.276-1.707 10.212-3.105 15.119-3.855 2.623-.529 5.555-.72 8.458-.262.648.03.618.678.589 1.327 1.606.398 2.872 1.106 4.139 1.814.619.678.22 2.284-1.076 2.225-15.429 3.516-26.943 20.858-39.177 32.643-9.861 9.62-20.959 17.883-32.557 22.875-20.234 9.144-43.573 8.074-55.945-5.489-22.565 17.484-47.884 31.269-71.847 43.816-2.005 1.208-3.979 1.767-5.984 2.975 12.169 3.807 26.182 2.825 40.433-3.345 13.573-5.551 25.849-11.161 39.582-13.131 12.746-1.69 24.754-1.464 35.657 1.635 5.775 1.564 11.211 3.438 16.309 5.621 6.703 2.582 14.173 2.599 21.614 3.265.958.369.559 1.975-.428 2.255-28.959 15.242-60.071 34.934-89.114 37.826-13.704 1.322-27.598-.29-37.305-8.208-10.355-7.947-20.71-15.895-30.388-24.461-15.945 7.717-31.861 14.785-47.718 20.556 15.191 1.671 29.525 7.851 35.664 22.753 6.727 16.228.441 39.983 7.198 55.563.899 1.665 1.487 2.992 2.725 4.348.618.678-.429 2.255-1.077 2.225-17.593 1.143-34.372-8.399-37.65-29.017-1.779-10.804 3.015-23.255-.43-33.16-2.885-7.93-8.482-13.384-13.769-18.5-6.263 1.987-12.217 4.313-18.48 6.3-13.513 4.254-26.996 7.86-40.111 10.507 11.711 6.71 25.207 9.928 37.287 15.68 5.716 2.862 11.093 6.032 15.423 10.779s6.656 10.702 9.63 16.687c.279.987-1.077 2.225-1.386 1.886-16.588-6.609-38.089 1.827-55.843-.611-9.047-1.065-15.97-5.931-21.169-12.992-2.754-3.7-4.83-8.019-6.906-12.338-2.385-4.658-3.753-10.244-7.185-13.325-4.259.779-8.178 1.25-12.746 1.69-28.395 2.922-55.255.716-83.25 2.031-3.581.161-2.725-4.348.237-5.187zm446.481-145.229c-2.872-1.106-5.775-1.564-9.017-1.713-8.856 1.868-18.628 9.543-26.455 17.306-8.505 8.383-17.01 16.765-27.002 22.155-10.331 5.7-20.454 6.86-31.285 9.288-9.195 2.177-19.038 4.325-28.144 4.557 14.317 13.653 40.736 11.29 62.445-1.685 12.365-7.556 23.244-18.104 33.842-29.639 7.857-8.412 16.052-17.133 25.616-20.269zm-113.636 48.399c8.178-1.25 16.725-3.457 24.903-4.707 11.479-2.398 22.649-5.135 34.057-13.059 11.746-8.234 23.142-22.981 35.507-30.537-5.276 1.708-10.891 3.724-15.857 5.771-11.568 4.343-21.709 12.975-32.748 19.942-14.708 9.073-30.374 17.776-45.862 22.59zM445.313 14.558c-11.116 15.735-15.588 35.349-22.225 52.59-4.425 11.493-7.523 22.397-10.312 33.641-2.361 8.989-4.413 18.317-9.367 27.187-5.013 10.166-12.561 18.918-19.46 27.698-6.53 7.823-12.412 15.676-18.633 23.838-10.04 13.511-20.109 27.67-28.881 41.888 15.196-12.624 29.523-27.563 42.893-42.87 15.066-16.853 29.173-34.076 35.988-55.207 6.447-20.173 9.991-40.804 13.845-61.096 3.395-17.388 11.918-33.243 20.47-49.745-1.975.559-3.301 1.148-4.318 2.076zM331.1 224.404c.339-.309.678-.619 1.326-.589 10.467-15.765 21.274-31.839 32.36-46.926 5.882-7.853 11.425-15.396 17.617-22.91 8.255-10.018 16.849-20.346 21.642-32.797 4.366-10.197 6.138-20.512 8.558-30.798 3.128-11.553 8.201-23.017 11.978-34.54 4.484-12.79 9.027-26.877 16.384-38.561-13.102 9.47-22.493 23.011-30.368 38.895-5.013 10.167-8.052 19.774-12.108 30.31-3.319 8.62-8.891 16.812-14.434 24.355-14.197 19.168-23.546 38.883-31.997 60.264-6.637 17.24-16.236 35.319-20.958 53.297zm64.856 52.033c-12.377.732-25.552 4.677-37.53 3.803-12.967-.595-24.089-5.978-37.852-3.36-14.072 2.279-28.234 6.503-41.967 8.473-10.123 1.16-19.818.066-28.466-2.605a392.022 392.022 0 0026.646 21.04c10.047 7.609 24.928 8.941 39.309 7.001 26.48-3.66 53.892-20.597 79.86-34.352zm-116.184 4.745l-7.868 1.589c4.228-.131 9.106-.232 13.703-1.321 13.085-1.999 26.289-6.592 39.005-7.634 12.407-1.381 22.602 2.986 33.932 3.83 9.386.755 19.23-1.393 29.043-2.892-2.254-.428-4.199-.518-6.423-1.594-6.394-2.243-12.419-5.443-19.182-6.728-12.538-2.849-25.843-3.134-39.606-.516-7.53 1.279-15.119 3.855-22.399 6.771-6.971 3.254-13.293 6.538-20.205 8.495zm-40.78 103.073c-.618-.678-.898-1.666-1.177-2.653-14.305-6.829-10.362-29.066-15.204-43.909-5.092-16.478-17.922-27.138-31.578-33.937l-.339.309c4.669 4.438 9.338 8.876 11.664 14.83 3.563 7.311 2.219 15.372 1.125 25.069-2.147 25.569 15.441 38.721 35.509 40.291zm-41.167-79.863c10.444 6.002 19.164 14.199 24.464 26.139 3.563 7.311 4.164 15.461 5.384 24.289.88 9.137 2.409 18.305 8.684 23.141-3.944-13.177-1.226-29.947-3.505-44.022-3.676-19.013-18.569-27.168-35.027-29.547zm80.678-94.745c6.899-8.781 13.489-17.901 20.388-26.682-9.094 7.056-18.188 14.112-26.044 22.524-8.565 9.679-16.231 21.024-24.177 31.381-13.15 17.591-25.681 35.861-38.831 53.452 6.221-8.162 14.548-12.653 21.667-19.15 9.492-8.662 17.159-20.007 24.177-31.381 3.17-5.378 6.339-10.756 10.467-15.765s8.535-9.031 12.353-14.379zm-72.982 82.752c.339-.31.987-.28 1.326-.589 14.566-20.126 28.792-39.942 43.328-59.42 7.606-10.048 14.934-21.083 23.807-30.423 5.454-5.598 11.527-10.518 17.26-15.129-7.369 4.861-15.077 10.031-22.166 15.879-10.111 7.983-21.12 14.302-31.231 22.285-13.133 10.12-22.155 22.702-26.449 38.425-2.051 9.328-3.794 18.995-5.875 28.972zm-17.222 71.013l-.619-.679c-7.012-2.92-11.342-7.667-16.969-12.474-5.597-5.455-14.674-5.871-22.703-7.864-14.144-3.247-27.889-8.101-39.202-16.417-2.623.529-4.907.75-7.53 1.279 1.546 1.696 2.724 4.349 3.592 6.663 2.356 5.306 4.711 10.613 7.745 15.3 5.758 9.036 13.978 13.962 24.66 14.776 17.165 1.112 35.306-4.879 51.026-.584zm-62.768-40.891l-12.776 2.338c11.652 8.007 25.427 12.213 40.219 15.49 6.424 1.594 13.555 1.921 18.563 6.049 5.009 4.129 9.339 8.876 14.716 12.046-2.106-3.67-4.212-7.341-7.644-10.422-4.669-4.438-10.355-7.947-16.41-10.499-12.449-4.795-25.635-7.673-36.668-15.002zm68.468-69.313c5.174-6.586 10.348-13.172 15.832-19.418-8.327 4.492-17.022 9.941-23.523 17.116-7.517 8.102-14.446 17.532-20.388 26.681-5.573 8.192-11.145 16.384-17.646 23.559-5.454 5.598-11.497 9.869-17.539 14.141l2.962-.839c6.131-6.217 12.823-10.459 19.853-15.01 8.695-5.449 15.844-12.594 22.404-21.066 5.882-7.853 11.485-16.693 18.045-25.164zm-74.743 64.477c1.974-.56 3.919-.47 5.894-1.03 8.725-6.098 17.789-12.505 24.997-20.947 7.209-8.441 13.21-18.888 20.109-27.669 5.882-7.853 12.133-16.663 19.561-22.821 7.09-5.848 15.107-10.678 22.447-14.89-19.259 2.041-39.255 5.997-56.105 26.343-8.255 10.019-15.273 21.393-21.333 33.137-4.675 9.857-9.01 19.405-15.57 27.877z" fill="#FF0054"/></svg>