<svg width="210" height="28" fill="none" xmlns="http://www.w3.org/2000/svg"><path d="M20.73 6.416c-.69 1.599-1.907 2.933-3.652 4.004.601.616.902 1.415.902 2.398 0 .396-.059.807-.176 1.232-.337 1.247-1.115 2.376-2.332 3.388-1.056.88-2.34 1.584-3.85 2.112-1.496.543-2.919.814-4.268.814-1.745 0-2.816-.425-3.212-1.276a1.644 1.644 0 01-.154-.704c0-.455.161-.924.484-1.408.25-.41.528-.719.836-.924.176-.117.323-.132.44-.044.059.059.022.205-.11.44-.176.323-.264.594-.264.814 0 .543.19.99.572 1.342.543.484 1.437.726 2.684.726a8.3 8.3 0 002.838-.484c1.496-.543 2.75-1.254 3.762-2.134.983-.836 1.635-1.738 1.958-2.706a3.77 3.77 0 00.22-1.232c0-.821-.279-1.51-.836-2.068-1.32.719-2.523 1.078-3.608 1.078a3.913 3.913 0 01-1.584-.308c-.601-.279-.902-.682-.902-1.21 0-.47.286-.85.858-1.144.587-.308 1.29-.44 2.112-.396 1.188.088 2.2.462 3.036 1.122a9.569 9.569 0 002.53-3.52 3.64 3.64 0 00.264-1.364c0-.733-.213-1.342-.638-1.826-.484-.543-1.195-.814-2.134-.814a5.18 5.18 0 00-1.122.132c-1.54.308-3.139 1.012-4.796 2.112a86.615 86.615 0 01-2.684 5.72c-1.408 2.772-2.713 4.928-3.916 6.468-1.232 1.584-2.23 2.376-2.992 2.376-.66 0-.99-.455-.99-1.364 0-1.085.433-2.457 1.298-4.114 1.599-3.036 4.04-5.845 7.326-8.426.455-.367.91-.704 1.364-1.012.484-1.232.8-2.09.946-2.574.088-.367.22-.55.396-.55.103 0 .19.059.264.176a.53.53 0 01.11.308c-.03.205-.257.858-.682 1.958 2.464-1.525 4.752-2.244 6.864-2.156.953.044 1.73.36 2.332.946.616.572.924 1.313.924 2.222 0 .587-.14 1.21-.418 1.87zM16.066 10.2c-.69-.572-1.57-.895-2.64-.968-.543-.044-.997.044-1.364.264-.367.22-.535.484-.506.792.015.264.19.484.528.66.352.176.77.264 1.254.264.924 0 1.833-.337 2.728-1.012zM9.532 5.316a28.521 28.521 0 00-5.39 5.324 24.415 24.415 0 00-2.2 3.432C1.15 15.524.754 16.617.754 17.35c0 .587.205.88.616.88.939 0 2.618-2.134 5.038-6.402.983-1.745 2.024-3.916 3.124-6.512zm21.687 8.954c-1.173 1.408-2.236 2.237-3.19 2.486a4.19 4.19 0 01-1.144.176c-.513 0-.953-.117-1.32-.352a12.065 12.065 0 01-2.662 2.002c-.924.499-1.745.748-2.464.748-1.085 0-1.628-.528-1.628-1.584 0-.865.389-1.87 1.166-3.014a12.417 12.417 0 013.256-3.234c1.306-.91 2.45-1.364 3.432-1.364 1.086 0 1.628.528 1.628 1.584 0 .865-.388 1.87-1.166 3.014-.322.47-.682.924-1.078 1.364.323.19.638.286.946.286.279 0 .602-.059.968-.176.851-.264 1.782-.997 2.794-2.2.103-.103.206-.154.308-.154.162 0 .242.073.242.22 0 .073-.029.14-.088.198zm-4.466-.198c.543-.924.814-1.701.814-2.332 0-.675-.3-1.012-.902-1.012-.66 0-1.474.374-2.442 1.122a11.726 11.726 0 00-2.53 2.706c-.762 1.13-1.144 2.075-1.144 2.838 0 .675.308 1.012.924 1.012.983 0 2.171-.719 3.564-2.156-.396-.323-.594-.682-.594-1.078 0-.352.147-.645.44-.88a1.93 1.93 0 011.188-.396c.294 0 .521.059.682.176zm19.005-12.32c0 1.115-.982 2.955-2.948 5.522-1.202 1.584-3.226 3.887-6.072 6.908-.953 1.716-1.43 2.897-1.43 3.542 0 .352.125.528.374.528.572 0 1.592-.601 3.058-1.804 1.218-.997 2.12-1.819 2.706-2.464a.337.337 0 01.242-.11c.147 0 .22.08.22.242a.413.413 0 01-.11.264c-.748.807-1.716 1.665-2.904 2.574-1.804 1.379-3.124 2.068-3.96 2.068-.352 0-.638-.095-.858-.286-.396-.352-.535-.836-.418-1.452-1.32 1.173-2.31 1.76-2.97 1.76-.308 0-.6-.11-.88-.33-.366-.279-.55-.733-.55-1.364 0-1.056.602-2.295 1.804-3.718.983-1.159 2.098-2.068 3.344-2.728 1.056-.543 1.958-.814 2.706-.814.28 0 .484.044.616.132l2.904-4.62c1.936-3.11 3.374-4.664 4.312-4.664.543 0 .814.271.814.814zm-.88-.044c-.44 0-1.408 1.232-2.904 3.696a899.019 899.019 0 01-2.97 5.06l-.99 1.584c1.892-2.068 3.322-3.725 4.29-4.972a27.797 27.797 0 001.892-2.816c.616-1.056.924-1.797.924-2.222 0-.22-.08-.33-.242-.33zm-7.458 9.02a.825.825 0 00-.484-.154c-.542 0-1.276.352-2.2 1.056a13.15 13.15 0 00-2.442 2.42c-1.1 1.423-1.65 2.61-1.65 3.564 0 .528.176.792.528.792.455 0 1.423-.77 2.904-2.31.367-.587.866-1.393 1.496-2.42.294-.484.91-1.467 1.848-2.948zm12.682 3.586c-.484.557-1.43 1.408-2.838 2.552-1.76 1.423-3.278 2.163-4.554 2.222-1.203.044-1.804-.33-1.804-1.122 0-.748.506-1.525 1.518-2.332A17.76 17.76 0 0143.92 14.6c.616-.367 1.041-.638 1.276-.814.748-.557 1.092-1.012 1.034-1.364-.044-.205-.19-.389-.44-.55a12.46 12.46 0 01-.77-.374 1.857 1.857 0 01-.484-.352c-.396.484-.976 1.188-1.738 2.112-.866 1.012-1.526 1.709-1.98 2.09-.162.132-.3.198-.418.198-.132 0-.206-.051-.22-.154-.015-.117.051-.235.198-.352.293-.25 1.004-1.02 2.134-2.31.997-1.144 1.525-1.855 1.584-2.134a1.044 1.044 0 01-.088-.726c.132-.484.381-.726.748-.726.425 0 .601.25.528.748-.044.235-.169.47-.374.704.03.073.19.205.484.396.293.176.594.337.902.484.381.264.55.609.506 1.034-.059.513-.52 1.247-1.386 2.2-.763.807-1.518 1.613-2.266 2.42-.396.47-.543.865-.44 1.188.03.073.095.117.198.132.322.059.865-.095 1.628-.462a13.06 13.06 0 002.332-1.474c1.056-.807 1.965-1.628 2.728-2.464.102-.117.212-.176.33-.176.176 0 .264.08.264.242 0 .059-.03.125-.088.198zm8.976-.44c.146.117.11.308-.11.572-.704.836-1.826 1.797-3.366 2.882-1.848 1.305-3.513 1.958-4.994 1.958-.558 0-1.027-.117-1.408-.352-.602-.381-.902-.968-.902-1.76 0-1.305.696-2.677 2.09-4.114a11.718 11.718 0 012.838-2.134c1.041-.557 1.914-.836 2.618-.836.66 0 .99.198.99.594 0 .396-.338.968-1.012 1.716a12.472 12.472 0 01-1.892 1.672c-1.13.807-2.325 1.342-3.586 1.606-.147.455-.22.858-.22 1.21 0 .557.183.968.55 1.232.322.22.704.33 1.144.33.968 0 2.12-.477 3.454-1.43 1.29-.924 2.376-1.892 3.256-2.904.25-.264.432-.345.55-.242zm-3.146-3.3c-.396 0-.968.22-1.716.66a10.724 10.724 0 00-2.2 1.738c-.572.587-1.049 1.298-1.43 2.134.997-.264 2.002-.748 3.014-1.452a13.03 13.03 0 001.826-1.562c.586-.587.88-1.012.88-1.276 0-.161-.125-.242-.374-.242zm12.632 3.762c-.586.719-1.474 1.533-2.662 2.442C63.966 18.259 62.624 19 61.876 19c-.425 0-.8-.117-1.122-.352-.322-.235-.498-.565-.528-.99-.073-.88.535-1.863 1.826-2.948 2.068-1.716 3.102-2.882 3.102-3.498 0-.293-.19-.44-.572-.44-.44 0-1.107.293-2.002.88-1.437.968-2.523 1.943-3.256 2.926a119.958 119.958 0 01-3.3 4.466c-.132.03-.3.007-.506-.066-.22-.073-.322-.154-.308-.242.03-.235 1.063-1.723 3.102-4.466 1.79-2.435 2.772-3.725 2.948-3.872.074-.059.257-.088.55-.088.293-.015.447.015.462.088.015.088-.293.565-.924 1.43 1.32-1.041 2.435-1.562 3.344-1.562.836 0 1.254.36 1.254 1.078 0 .69-.352 1.437-1.056 2.244-1.804 2.053-2.764 3.461-2.882 4.224a.383.383 0 00.11.33c.088.073.235.095.44.066.557-.073 1.474-.609 2.75-1.606a26.856 26.856 0 002.816-2.552c.118-.147.242-.22.374-.22.103 0 .169.051.198.154.03.117-.014.235-.132.352zm10.661.022c-.25.396-1.092 1.173-2.53 2.332-1.98 1.584-3.534 2.376-4.664 2.376-.352 0-.645-.103-.88-.308-.234-.205-.352-.484-.352-.836 0-.308.088-.557.264-.748.514-.513.77-.902.77-1.166a.506.506 0 00-.088-.286c-.117-.147-.322-.235-.616-.264-.498.235-.916.374-1.254.418-.205.03-.374-.007-.506-.11a.474.474 0 01-.154-.396c.044-.22.308-.352.792-.396.147-.015.36-.022.638-.022a8.593 8.593 0 002.398-1.32c1.452-1.13 2.178-1.973 2.178-2.53 0-.205-.132-.308-.396-.308-.601 0-1.481.403-2.64 1.21-.528.352-1.283.99-2.266 1.914-1.041.968-1.767 1.723-2.178 2.266a73.878 73.878 0 01-2.178 2.86c-.132.03-.3.007-.506-.066-.22-.073-.322-.154-.308-.242.03-.235 1.064-1.723 3.102-4.466.704-.953 2.09-2.919 4.158-5.896 1.73-2.479 3.139-4.415 4.224-5.808.85-1.085 1.628-1.628 2.332-1.628.484 0 .726.257.726.77 0 .601-.337 1.452-1.012 2.552a14.387 14.387 0 01-1.98 2.574c-1.334 1.35-2.64 2.31-3.916 2.882-.322.455-1.136 1.591-2.442 3.41a70.72 70.72 0 001.078-.924c.499-.41.99-.755 1.474-1.034 1.232-.733 2.318-1.1 3.256-1.1.704 0 1.056.235 1.056.704 0 .836-1.004 1.921-3.014 3.256-.616.41-1.24.763-1.87 1.056.543.103.88.293 1.012.572.059.147.088.3.088.462 0 .205-.058.44-.176.704-.102.19-.198.374-.286.55-.117.25-.176.433-.176.55 0 .22.169.323.506.308.807-.044 1.929-.66 3.366-1.848 1.306-1.085 2.142-1.84 2.508-2.266.132-.161.272-.242.418-.242.118 0 .176.059.176.176 0 .088-.044.19-.132.308zm-.88-12.54c-.513 0-1.65 1.35-3.41 4.048l-1.87 2.794c.866-.44 1.834-1.188 2.904-2.244a11.679 11.679 0 001.804-2.31c.543-.895.814-1.547.814-1.958 0-.22-.08-.33-.242-.33zM89.507 14.27c-1.174 1.408-2.237 2.237-3.19 2.486a4.196 4.196 0 01-1.144.176c-.514 0-.954-.117-1.32-.352a12.065 12.065 0 01-2.662 2.002c-.925.499-1.746.748-2.465.748-1.085 0-1.627-.528-1.627-1.584 0-.865.388-1.87 1.165-3.014a12.417 12.417 0 013.257-3.234c1.305-.91 2.449-1.364 3.431-1.364 1.086 0 1.629.528 1.629 1.584 0 .865-.39 1.87-1.166 3.014-.323.47-.683.924-1.079 1.364.323.19.639.286.947.286.278 0 .6-.059.968-.176.85-.264 1.781-.997 2.793-2.2.103-.103.206-.154.309-.154.16 0 .242.073.242.22 0 .073-.03.14-.088.198zm-4.467-.198c.543-.924.814-1.701.814-2.332 0-.675-.3-1.012-.901-1.012-.66 0-1.475.374-2.443 1.122a11.726 11.726 0 00-2.53 2.706c-.762 1.13-1.144 2.075-1.144 2.838 0 .675.308 1.012.924 1.012.983 0 2.171-.719 3.564-2.156-.395-.323-.593-.682-.593-1.078 0-.352.146-.645.44-.88a1.93 1.93 0 011.188-.396c.293 0 .52.059.681.176zm15.112-.132c.102.132.095.271-.022.418-.5.587-1.181 1.21-2.046 1.87-.851.66-1.621.99-2.31.99-.763 0-1.32-.279-1.672-.836-.954.895-1.922 1.584-2.904 2.068-.851.41-1.533.601-2.046.572-.5-.03-.903-.19-1.21-.484-.294-.293-.44-.682-.44-1.166 0-.675.418-1.687 1.254-3.036.425-.66 1.078-1.489 1.957-2.486.778-.865 1.255-1.357 1.43-1.474a.6.6 0 01.308-.066c.162.015.257.073.287.176l-1.144 1.87c-.88 1.452-1.555 2.691-2.024 3.718-.191.41-.286.821-.286 1.232 0 .587.249.88.747.88.866 0 2.134-.792 3.806-2.376a3.286 3.286 0 01-.11-.88c0-.763.198-1.525.594-2.288a5.527 5.527 0 011.585-1.892c.572-.44 1.092-.66 1.561-.66.353 0 .529.154.529.462 0 .601-.44 1.533-1.32 2.794-.69.997-1.386 1.855-2.09 2.574.249.499.689.748 1.32.748.615 0 1.356-.374 2.221-1.122a21.234 21.234 0 001.629-1.584c.146-.161.278-.169.396-.022zm-3.367-3.014c-.542 0-1.18.682-1.913 2.046-.411.763-.573 1.533-.484 2.31a15.854 15.854 0 001.605-1.98c.705-.983 1.056-1.687 1.056-2.112 0-.176-.088-.264-.264-.264zm13.957 3.432c-.631.763-1.621 1.65-2.97 2.662-1.936 1.437-3.278 2.105-4.026 2.002-.792-.103-1.188-.557-1.188-1.364 0-.19.029-.389.088-.594-1.174 1.35-2.193 2.002-3.058 1.958-.91-.044-1.364-.601-1.364-1.672 0-.997.47-2.09 1.408-3.278a12.338 12.338 0 013.344-2.948c1.188-.69 2.192-1.034 3.014-1.034.352 0 .63.08.836.242.205.161.286.41.242.748.337-.337.542-.535.616-.594a.588.588 0 01.308-.11.705.705 0 01.352 0c.088.015.11.059.066.132-.484.69-1.306 1.9-2.464 3.63-1.042 1.613-1.606 2.765-1.694 3.454-.074.44.051.66.374.66.557 0 1.584-.609 3.08-1.826 1.334-1.07 2.229-1.892 2.684-2.464a.292.292 0 01.242-.11c.176 0 .264.073.264.22 0 .088-.052.183-.154.286zm-4.444-2.354c.176-.22.264-.477.264-.77 0-.44-.213-.66-.638-.66-.455 0-1.034.227-1.738.682-.763.484-1.496 1.13-2.2 1.936-1.584 1.79-2.376 3.27-2.376 4.444 0 .499.168.748.506.748.381 0 .982-.396 1.804-1.188a16.987 16.987 0 001.87-2.112 56.027 56.027 0 012.508-3.08zm39.833-9.57c-1.408 2.053-2.896 4.451-4.466 7.194.396.205.704.403.924.594.22.176.279.345.176.506-.117.161-.249.176-.396.044-.22-.19-.55-.403-.99-.638a65.434 65.434 0 00-1.496 2.838c-1.012 2.068-1.518 3.6-1.518 4.598 0 .85.389 1.276 1.166 1.276.704 0 1.298-.286 1.782-.858.118-.147.213-.205.286-.176.147.03.125.169-.066.418-.176.25-.476.491-.902.726-.513.279-1.004.418-1.474.418-.308 0-.594-.059-.858-.176-.909-.455-1.364-1.159-1.364-2.112 0-.763.25-1.745.748-2.948.382-.91 1.262-2.413 2.64-4.51a20.022 20.022 0 00-3.014-.99 5447.65 5447.65 0 01-3.894 4.334c-1.598 1.73-3.043 3.073-4.334 4.026-1.701 1.247-3.424 2.053-5.17 2.42a7.091 7.091 0 01-1.518.154c-1.32 0-2.412-.286-3.278-.858-1.085-.704-1.642-1.76-1.672-3.168-.029-1.877 1.218-3.586 3.74-5.126 2.303-1.408 4.958-2.295 7.964-2.662a24.4 24.4 0 013.234-.22c1.584 0 3.11.154 4.576.462 3.564-3.432 5.706-5.383 6.424-5.852.822-.557 1.504-.836 2.046-.836.587 0 .88.213.88.638a.815.815 0 01-.176.484zm-.462-.638a.546.546 0 00-.242-.044c-.322 0-.777.161-1.364.484-.968.557-3.072 2.537-6.314 5.94a17.96 17.96 0 012.882.968 93.332 93.332 0 013.278-4.576c.924-1.217 1.511-1.973 1.76-2.266.206-.235.206-.403 0-.506zm-9.196 6.644a20.484 20.484 0 00-4.07-.396c-1.437 0-2.933.14-4.488.418-2.434.455-4.627 1.276-6.578 2.464-2.2 1.35-3.3 2.765-3.3 4.246 0 .147.008.3.022.462.264 1.525 1.401 2.288 3.41 2.288a9.49 9.49 0 002.706-.418c1.672-.484 3.293-1.283 4.862-2.398 1.159-.792 2.56-1.98 4.202-3.564l3.234-3.102zm17.281 5.434c.146.103.139.257-.022.462-.631.821-1.797 1.84-3.498 3.058-1.628 1.173-3.014 1.76-4.158 1.76-.206 0-.418-.022-.638-.066-1.364-.205-2.046-.931-2.046-2.178 0-.836.344-1.782 1.034-2.838.704-1.07 1.628-1.98 2.772-2.728 1.07-.719 1.994-1.078 2.772-1.078.777 0 1.166.36 1.166 1.078 0 .513-.228 1.1-.682 1.76-.044.073-.125.11-.242.11-.132-.015-.294-.08-.484-.198-.191-.117-.308-.213-.352-.286-.03-.103.014-.19.132-.264.132-.073.293-.235.484-.484.22-.308.33-.565.33-.77 0-.293-.184-.44-.55-.44-.455 0-.983.235-1.584.704-.704.513-1.364 1.24-1.98 2.178-.734 1.115-1.1 2.141-1.1 3.08 0 1.173.476 1.76 1.43 1.76.968 0 2.17-.543 3.608-1.628 1.378-1.056 2.427-2.01 3.146-2.86.161-.19.315-.235.462-.132zm10.591.484c-.63.763-1.62 1.65-2.97 2.662-1.936 1.437-3.278 2.105-4.026 2.002-.792-.103-1.188-.557-1.188-1.364 0-.19.03-.389.088-.594-1.173 1.35-2.192 2.002-3.058 1.958-.909-.044-1.364-.601-1.364-1.672 0-.997.47-2.09 1.408-3.278a12.364 12.364 0 013.344-2.948c1.188-.69 2.193-1.034 3.014-1.034.352 0 .631.08.836.242.206.161.286.41.242.748.338-.337.543-.535.616-.594a.592.592 0 01.308-.11.705.705 0 01.352 0c.088.015.11.059.066.132-.484.69-1.305 1.9-2.464 3.63-1.041 1.613-1.606 2.765-1.694 3.454-.073.44.052.66.374.66.558 0 1.584-.609 3.08-1.826 1.335-1.07 2.23-1.892 2.684-2.464a.294.294 0 01.242-.11c.176 0 .264.073.264.22 0 .088-.051.183-.154.286zm-4.444-2.354c.176-.22.264-.477.264-.77 0-.44-.212-.66-.638-.66-.454 0-1.034.227-1.738.682-.762.484-1.496 1.13-2.2 1.936-1.584 1.79-2.376 3.27-2.376 4.444 0 .499.169.748.506.748.382 0 .983-.396 1.804-1.188.69-.66 1.313-1.364 1.87-2.112a56.027 56.027 0 012.508-3.08zM178.94 1.752c0 1.115-.983 2.955-2.948 5.522-1.203 1.584-3.227 3.887-6.072 6.908-.953 1.716-1.43 2.897-1.43 3.542 0 .352.125.528.374.528.572 0 1.591-.601 3.058-1.804 1.217-.997 2.119-1.819 2.706-2.464a.336.336 0 01.242-.11c.147 0 .22.08.22.242a.415.415 0 01-.11.264c-.748.807-1.716 1.665-2.904 2.574-1.804 1.379-3.124 2.068-3.96 2.068-.352 0-.638-.095-.858-.286-.396-.352-.535-.836-.418-1.452-1.32 1.173-2.31 1.76-2.97 1.76-.308 0-.601-.11-.88-.33-.367-.279-.55-.733-.55-1.364 0-1.056.601-2.295 1.804-3.718.983-1.159 2.097-2.068 3.344-2.728 1.056-.543 1.958-.814 2.706-.814.279 0 .484.044.616.132l2.904-4.62c1.936-3.11 3.373-4.664 4.312-4.664.543 0 .814.271.814.814zm-.88-.044c-.44 0-1.408 1.232-2.904 3.696a950.391 950.391 0 01-2.97 5.06l-.99 1.584c1.892-2.068 3.322-3.725 4.29-4.972a27.747 27.747 0 001.892-2.816c.616-1.056.924-1.797.924-2.222 0-.22-.081-.33-.242-.33zm-7.458 9.02a.826.826 0 00-.484-.154c-.543 0-1.276.352-2.2 1.056a13.17 13.17 0 00-2.442 2.42c-1.1 1.423-1.65 2.61-1.65 3.564 0 .528.176.792.528.792.455 0 1.423-.77 2.904-2.31.367-.587.865-1.393 1.496-2.42.293-.484.909-1.467 1.848-2.948zm13.407 3.146c.147.117.11.308-.11.572-.704.836-1.826 1.797-3.366 2.882-1.848 1.305-3.512 1.958-4.994 1.958-.557 0-1.026-.117-1.408-.352-.601-.381-.902-.968-.902-1.76 0-1.305.697-2.677 2.09-4.114a11.73 11.73 0 012.838-2.134c1.042-.557 1.914-.836 2.618-.836.66 0 .99.198.99.594 0 .396-.337.968-1.012 1.716a12.457 12.457 0 01-1.892 1.672c-1.129.807-2.324 1.342-3.586 1.606-.146.455-.22.858-.22 1.21 0 .557.184.968.55 1.232.323.22.704.33 1.144.33.968 0 2.12-.477 3.454-1.43 1.291-.924 2.376-1.892 3.256-2.904.25-.264.433-.345.55-.242zm-3.146-3.3c-.396 0-.968.22-1.716.66a10.732 10.732 0 00-2.2 1.738c-.572.587-1.048 1.298-1.43 2.134.998-.264 2.002-.748 3.014-1.452a12.996 12.996 0 001.826-1.562c.587-.587.88-1.012.88-1.276 0-.161-.124-.242-.374-.242zm17.913 3.762c-.587.719-1.474 1.533-2.662 2.442-1.936 1.481-3.278 2.222-4.026 2.222-.426 0-.8-.117-1.122-.352-.323-.235-.499-.565-.528-.99-.074-.88.535-1.863 1.826-2.948 2.068-1.716 3.102-2.882 3.102-3.498 0-.293-.191-.44-.572-.44-.44 0-1.108.293-2.002.88-.748.499-1.826 1.533-3.234 3.102-.426.47-1.093 1.29-2.002 2.464-.807 1.041-1.269 1.613-1.386 1.716-.103.088-.33.169-.682.242-.352.088-.638.125-.858.11-.132-.015-.206-.059-.22-.132-.03-.088 1.151-1.606 3.542-4.554.454-.557.916-1.122 1.386-1.694.528-.704.792-1.232.792-1.584 0-.337-.206-.506-.616-.506-.631 0-1.584.506-2.86 1.518-1.174.924-2.076 1.819-2.706 2.684a98.441 98.441 0 01-2.992 4.026c-.132.03-.301.007-.506-.066-.22-.073-.323-.154-.308-.242.029-.235 1.063-1.723 3.102-4.466 1.789-2.435 2.772-3.725 2.948-3.872.073-.059.256-.088.55-.088.293-.015.447.015.462.088l-1.122 1.606c1.598-1.173 2.838-1.76 3.718-1.76.161 0 .33.015.506.044.498.088.748.41.748.968 0 .396-.125.807-.374 1.232 1.906-1.481 3.314-2.222 4.224-2.222.836 0 1.254.36 1.254 1.078 0 .69-.352 1.437-1.056 2.244-1.804 2.053-2.765 3.461-2.882 4.224a.382.382 0 00.11.33c.088.073.234.095.44.066.557-.073 1.474-.609 2.75-1.606a26.927 26.927 0 002.816-2.552c.117-.147.242-.22.374-.22.102 0 .168.051.198.154.029.117-.015.235-.132.352zm10.16-.132c-.44.645-1.562 1.657-3.366 3.036-1.144.88-2.515 1.606-4.114 2.178-1.085 1.701-2.068 3.124-2.948 4.268-.88 1.144-1.826 2.024-2.838 2.64-.851.513-1.599.77-2.244.77-.66 0-.99-.308-.99-.924 0-.499.213-1.1.638-1.804.411-.69.983-1.364 1.716-2.024 1.379-1.203 3.256-2.237 5.632-3.102.235-.499.623-1.298 1.166-2.398a14.48 14.48 0 01-.814.77 6.743 6.743 0 01-1.606 1.012c-.66.323-1.195.455-1.606.396-.792-.103-1.188-.565-1.188-1.386 0-.147.015-.293.044-.44.132-.719.821-1.84 2.068-3.366 1.775-2.17 2.757-3.307 2.948-3.41a.773.773 0 01.418-.11c.191-.015.286.037.286.154 0 .132-.271.594-.814 1.386-.865 1.232-1.386 1.995-1.562 2.288-1.041 1.613-1.606 2.765-1.694 3.454-.073.44.051.66.374.66.103 0 .235-.03.396-.088 1.232-.44 2.655-1.753 4.268-3.938 1.452-1.965 2.545-3.22 3.278-3.762a.599.599 0 01.286-.088.705.705 0 01.352 0c.088.015.11.059.066.132-.205.293-1.921 3.007-5.148 8.14 1.496-.63 2.633-1.247 3.41-1.848 1.379-1.056 2.435-2.024 3.168-2.904.088-.088.213-.088.374 0 .132.073.147.176.044.308zm-8.844 5.698c-1.863.719-3.381 1.584-4.554 2.596a8.314 8.314 0 00-1.452 1.694c-.396.63-.594 1.151-.594 1.562 0 .425.183.638.55.638.425 0 .99-.25 1.694-.748a10.502 10.502 0 002.134-2.134c.66-.85 1.401-2.053 2.222-3.608z" fill="#BF0A20"/></svg>