<svg width="14" height="14" viewBox="0 0 14 14" fill="none" xmlns="http://www.w3.org/2000/svg">
<circle cx="7" cy="7" r="7" fill="#BF0A20"/>
<path d="M5.656 8.4285C5.656 8.2045 5.677 7.9945 5.719 7.7985C5.768 7.5955 5.8555 7.41 5.9815 7.242C6.1075 7.074 6.286 6.9235 6.517 6.7905C6.615 6.7275 6.741 6.654 6.895 6.57C7.056 6.486 7.21 6.3915 7.357 6.2865C7.504 6.1745 7.6265 6.045 7.7245 5.898C7.8295 5.744 7.882 5.569 7.882 5.373C7.882 5.177 7.833 5.0125 7.735 4.8795C7.644 4.7465 7.5215 4.645 7.3675 4.575C7.2205 4.505 7.0595 4.47 6.8845 4.47C6.6815 4.47 6.4995 4.5155 6.3385 4.6065C6.1775 4.6905 6.041 4.7955 5.929 4.9215C5.817 5.0475 5.7225 5.177 5.6455 5.31L4.732 4.68C4.858 4.393 5.0295 4.148 5.2465 3.945C5.4705 3.742 5.726 3.588 6.013 3.483C6.307 3.378 6.6115 3.3255 6.9265 3.3255C7.1925 3.3255 7.455 3.3675 7.714 3.4515C7.973 3.5285 8.2075 3.651 8.4175 3.819C8.6275 3.987 8.7955 4.2005 8.9215 4.4595C9.0475 4.7185 9.1105 5.03 9.1105 5.394C9.1105 5.618 9.0825 5.8175 9.0265 5.9925C8.9775 6.1675 8.904 6.325 8.806 6.465C8.715 6.598 8.5995 6.7205 8.4595 6.8325C8.3195 6.9445 8.169 7.053 8.008 7.158C7.826 7.27 7.6405 7.3785 7.4515 7.4835C7.2695 7.5885 7.1155 7.7145 6.9895 7.8615C6.8705 8.0015 6.811 8.1905 6.811 8.4285H5.656ZM5.677 10.875V9.426H6.8425V10.875H5.677Z" fill="white"/>
</svg>
