<svg width="309" height="161" fill="none" xmlns="http://www.w3.org/2000/svg"><path d="M92.822 14.572c1.58-2.354 2.166-5.457 1.24-8.178-.218-.7-.498-1.355-.847-1.999-.348-.644-.725-1.248-1.193-1.768-.248-.24-.497-.48-.763-.612a1.027 1.027 0 00-.783-.084c-.529.19-.998.755-1.393 1.344-.784 1.21-1.331 2.593-1.81 3.965a60.115 60.115 0 00-1.279 4.23c-.766 2.853-1.378 5.786-1.963 8.68-1.157 5.854-2.065 11.74-2.938 17.619-.908 5.885-1.635 11.81-2.259 17.72a577.973 577.973 0 00-1.685 17.804c-.255 2.98-.51 5.96-.908 8.93a91.218 91.218 0 01-1.623 8.834 115.911 115.911 0 01-2.314 8.666c-.868 2.869-1.85 5.686-2.83 8.503a169.385 169.385 0 01-6.81 16.597 349.617 349.617 0 01-3.952 8.054c-1.355 2.668-2.676 5.33-4.07 7.968a64.953 64.953 0 01-4.83 7.6c-1.784 2.387-3.558 4.842-5.857 6.856a15.96 15.96 0 01-1.807 1.375c-.633.417-1.265.833-1.943 1.187a24.165 24.165 0 01-4.143 1.856c-2.89.954-6.03 1.214-9.04.543-1.492-.355-2.919-.966-4.249-1.627-1.364-.656-2.666-1.356-3.996-2.018-2.666-1.356-5.32-2.854-7.63-4.827-2.277-1.979-4.376-4.162-6.105-6.648-.861-1.227-1.666-2.532-2.31-3.933-.64-1.367-1.154-2.825-1.56-4.264-.755-2.958-.999-5.999-.817-9.003.182-3.003.75-5.999 1.617-8.868.862-2.903 1.951-5.703 3.34-8.376a45.695 45.695 0 012.27-3.934 35.244 35.244 0 012.78-3.596c1.006-1.142 2.136-2.163 3.316-3.088.627-.45 1.22-.896 1.892-1.284.672-.388 1.355-.708 2.038-1.027 1.406-.611 2.867-1.09 4.418-1.235a10.776 10.776 0 012.344.008 9.043 9.043 0 012.257.547 6.816 6.816 0 012.1 1.098c.322.263.61.532.869.84.13.154.225.314.36.502.05.097.13.154.18.25l.147.257c.393.707.593 1.515.685 2.305l.059.585c-.001.21-.008.387-.01.597-.007.386-.05.778-.091 1.169-.242 1.544-.778 2.995-1.506 4.337-.729 1.342-1.645 2.609-2.882 3.612a3.14 3.14 0 01-1.122.636c-.233.072-.472.11-.756.086-.25-.03-.55-.157-.718-.339-.402-.321-.575-.748-.71-1.146-.133-.399-.199-.808-.26-1.183a4.725 4.725 0 01.276-2.424c.265-.743.615-1.394.96-2.079.35-.651.66-1.331.97-2.011.156-.34.31-.68.471-.985.156-.34.34-.72.495-1.06.7-1.302 1.428-2.644 2.162-3.952.735-1.308 1.508-2.587 2.395-3.814.463-.6.927-1.199 1.43-1.77.502-.57 1.044-1.112 1.553-1.649.542-.542 1.09-1.05 1.672-1.563.308-.26.621-.485.935-.71.353-.197.7-.428 1.138-.534l.341-.054c.142.012.244-.005.386.008.148.046.255.064.369.115.113.052.232.138.35.224.407.355.552.821.646 1.191.2.808.184 1.58.203 2.347-.016.773-.037 1.51-.059 2.25-.02.737-.008 1.47.13 2.113.05.307.173.637.33.752.16.114.34.155.613.111.268-.078.558-.23.843-.415.285-.186.564-.406.804-.654.52-.469 1.022-1.04 1.462-1.565.435-.56.756-1.171 1.032-1.846.277-.674.514-1.377.784-2.085a17.97 17.97 0 01.926-2.074 20.338 20.338 0 012.537-3.802c.503-.57 1.04-1.147 1.66-1.632.314-.225.657-.49 1.089-.63.233-.072.466-.145.79-.091.147.046.328.087.452.207.08.057.125.12.17.182l.135.189c.218.49.216.91.242 1.29.026.381-.016.773.01 1.154-.02.738-.008 1.47.102 2.153.11.683.379 1.27.905 1.5.498.27 1.191.228 1.857.016.67-.178 1.32-.492 1.929-.835a9.836 9.836 0 001.721-1.256c1.033-.971 1.852-2.188 2.518-3.485.316-.645.722-1.165 1.1-1.856.379-.69.921-1.233 1.458-1.81a32.913 32.913 0 011.656-1.665l1.758-1.682c2.157-2.027 3.946-4.169 5.98-6.316a176.568 176.568 0 005.998-6.633 293.798 293.798 0 002.88-3.402l1.44-1.701c.504-.571.972-1.136 1.588-1.655.154-.13.308-.26.536-.366.097-.05.228-.107.364-.129l.239-.038c.107.017.176.007.25.03a.927.927 0 01.67.697c.079.267.112.472.11.682-.004.84-.168 1.567-.291 2.322-.32 1.486-1.157 3.895-1.552 5.358-1.628 5.756-3.08 10.433-4.747 16.16-1.668 5.728-3.12 11.49-4.572 17.253-1.486 5.768-2.501 11.635-3.16 17.55-.294 2.952-.55 5.933-.6 8.881-.01 1.471.05 2.931.412 4.308.178.671.497 1.355.743 2.015l.472.974c.157.325 1.83 2.47 2.022 2.79 1.547 2.446 3.882 3.05 4.761 4.169 2.455 1.565 5.224 2.695 8.071 3.217 1.44.259 2.893.375 4.347.281 1.46-.059 2.891-.289 4.34-.627 2.866-.67 5.631-1.745 8.435-2.79 11.219-4.183 22.821-7.062 33.758-11.689l.102-.017c.035-.005.029-.039.063-.045l.131-.056.296-.117.626-.241 1.246-.515 2.498-.997 5.001-1.958a512.363 512.363 0 0110.052-3.82c6.696-2.511 13.442-4.925 20.194-7.305 13.498-4.794 27.304-8.762 41.27-11.951 6.98-1.612 13.993-3.019 21.007-4.426a556.772 556.772 0 0121.139-3.817c14.148-2.273 28.471-3.455 42.727-4.626.278-.01.687-.076.714.095.044.272-.381.236-.654.28-14.255 1.17-28.509 3.007-42.628 5.24a554.792 554.792 0 00-21.105 3.812c-7.014 1.407-14.027 2.814-20.973 4.42a360.221 360.221 0 00-41.173 11.901c-6.752 2.38-13.464 4.788-20.16 7.299a511.494 511.494 0 00-10.018 3.815l-5.001 1.958-5.093 2.043.103-.016c-11.04 4.644-22.676 7.529-33.827 11.7-2.804 1.046-5.603 2.125-8.536 2.807-1.484.343-2.984.584-4.511.655a19.867 19.867 0 01-4.563-.317c-2.994-.569-5.842-1.756-8.444-3.367-2.568-1.617-4.838-3.772-6.51-6.338-.19-.319-.416-.633-.579-.992l-.516-1.037c-.291-.723-.61-1.406-.805-2.18-.383-1.513-.42-3.047-.456-4.581.04-3.016.295-5.997.585-8.983.652-5.949 1.696-11.856 3.177-17.658 1.447-5.797 3.358-11.528 5.026-17.255 1.667-5.728 3.522-11.38 5.121-17.096.4-1.429.585-2.893.877-4.34.129-.72.144-1.493.142-2.158a.839.839 0 00-.065-.41l-.051-.096s-.068.011-.199.067c-.13.056-.256.146-.376.27-.525.435-.994 1-1.496 1.57l-1.44 1.702c-.972 1.136-1.91 2.266-2.915 3.408a155.412 155.412 0 01-6.033 6.638c-2.067 2.153-4.168 4.31-6.36 6.342L67.14 78.68c-.548.508-.972 1.136-1.452 1.633-.474.53-.959.994-1.314 1.61a39.052 39.052 0 00-1.05 1.954c-.69 1.37-1.565 2.666-2.69 3.722a9.827 9.827 0 01-1.875 1.386c-.672.388-1.39.713-2.157.942-.404.1-.807.2-1.227.197-.42-.002-.886-.068-1.305-.28-.418-.213-.757-.579-.993-.96a3.914 3.914 0 01-.402-1.196c-.132-.818-.116-1.59-.095-2.33.008-.385.022-.737 0-1.084-.02-.347-.046-.728-.142-.887-.05-.097-.045-.063-.084-.092-.04-.028-.176-.006-.307.05a3.876 3.876 0 00-.826.517 9.925 9.925 0 00-1.507 1.503 18.704 18.704 0 00-2.422 3.643c-.35.651-.627 1.326-.903 2-.276.674-.474 1.406-.779 2.12a10.57 10.57 0 01-1.14 2.038c-.493.639-1 1.176-1.577 1.723a7.373 7.373 0 01-.93.745c-.348.23-.7.427-1.133.566l-.34.055c-.143-.012-.245.004-.387-.008-.255-.064-.55-.156-.724-.373-.378-.394-.518-.827-.618-1.23-.165-.814-.15-1.586-.162-2.32l.058-2.248c-.013-.733-.026-1.466-.164-2.109-.084-.301-.201-.597-.365-.746-.164-.149-.38-.184-.646-.106-.569.161-1.167.573-1.72 1.046-.554.474-1.068.977-1.616 1.485-.508.536-1.056 1.044-1.525 1.61-.474.53-.937 1.13-1.372 1.69-.858 1.188-1.632 2.467-2.337 3.735-.74 1.274-1.434 2.61-2.134 3.912-.19.346-.322.612-.471.986l-.466 1.02c-.31.679-.66 1.331-1.005 2.016-.35.651-.66 1.331-.908 1.966-.248.634-.314 1.31-.238 1.998.054.341.11.682.232 1.012.118.296.235.592.433.735.085.092.193.109.266.133.108.017.21.001.341-.055.267-.078.552-.264.832-.484a9.914 9.914 0 001.467-1.53c.435-.56.793-1.598 1.148-2.215.672-1.262.538-.786 1.44-3.661.236-2.452.136-2.856-.516-4.081l-.106-.228-.14-.222c-.09-.126-.186-.285-.31-.405a6.479 6.479 0 00-.746-.72 6.916 6.916 0 00-1.868-.96 10.838 10.838 0 00-2.075-.507 8.66 8.66 0 00-2.134-.007c-1.414.123-2.813.558-4.15 1.157-2.687 1.132-5.008 3.01-6.967 5.179a33.02 33.02 0 00-2.694 3.478 43.12 43.12 0 00-2.218 3.821 49.57 49.57 0 00-3.26 8.223 39.776 39.776 0 00-1.577 8.687c-.193 2.935.04 5.907.773 8.729.367 1.411.87 2.8 1.504 4.133.634 1.333 1.393 2.576 2.215 3.773a37.227 37.227 0 005.975 6.494c1.096.944 2.317 1.797 3.561 2.577 1.245.78 2.58 1.475 3.877 2.142 1.335.695 2.637 1.396 3.962 2.023 1.325.627 3.072.836 4.49 1.168 2.828.63 5.235.594 7.988-.339 1.394-.469 2.696-.853 3.943-1.578a60.837 60.837 0 003.185-1.947c.598-.411.12-.124.673-.598 2.213-1.895 3.953-4.345 5.738-6.731 1.75-2.381 3.377-4.882 4.743-7.481 1.36-2.634 2.715-5.301 4.07-7.968a351.594 351.594 0 003.957-8.02 159.684 159.684 0 006.758-16.484c.982-2.817 1.963-5.635 2.836-8.47.873-2.835 1.668-5.727 2.291-8.592a105.462 105.462 0 001.6-8.76c.403-2.935.658-5.916.914-8.896.51-5.961 1.06-11.894 1.719-17.809.653-5.949 1.38-11.875 2.287-17.76.868-5.914 1.81-11.804 2.967-17.66.579-2.927 1.226-5.865 1.986-8.752.394-1.463.794-2.892 1.302-4.304.507-1.411 1.05-2.828 1.92-4.158.228-.316.457-.633.76-.927.302-.293.644-.558 1.071-.732.427-.173 1-.09 1.385.128.418.212.706.48.966.79.547.576.97 1.243 1.323 1.921.354.678.645 1.401.902 2.13.257.729.383 1.513.47 2.27.052.76.126 1.658.037 2.408.052 1.846-.523 3.058-1.807 4.21-.109.192-.382.236-.574.127-.102.016-.14-.223-.032-.415z" fill="#333"/></svg>