<svg width="141" height="141" fill="none" xmlns="http://www.w3.org/2000/svg"><path d="M25.47 75.209c-1.44 0-2.495-.39-3.167-1.168-.672-.79-1.008-1.77-1.008-2.944 0-.32.037-.704.112-1.152a6.114 6.114 0 011.168-2.688 6.251 6.251 0 012.176-1.792c.842-.427 1.701-.64 2.576-.64.437 0 .874.048 1.312.144.448.096.794.224 1.04.384.064.043.101.09.112.144.021.043.026.123.016.24l-.192 1.888c-.01.043-.043.064-.096.064-.053 0-.08-.021-.08-.064-.107-.81-.4-1.413-.88-1.808-.47-.405-1.083-.608-1.84-.608-.662 0-1.27.176-1.824.528-.555.341-1.019.832-1.392 1.472-.363.64-.608 1.392-.736 2.256a7.968 7.968 0 00-.112 1.344c0 .79.117 1.499.352 2.128.234.63.57 1.125 1.008 1.488a2.44 2.44 0 001.552.528c.587 0 1.163-.197 1.728-.592.576-.405 1.12-1.013 1.632-1.824.021-.021.043-.032.064-.032.032 0 .058.01.08.032.021.021.026.043.016.064l-.464 1.76a1.085 1.085 0 01-.096.272c-.032.043-.096.075-.192.096-.928.32-1.883.48-2.864.48zm13.104-1.44c.01-.01.026-.016.048-.016.032 0 .059.021.08.064.021.032.021.059 0 .08-.523.512-.89.848-1.104 1.008-.203.16-.432.24-.688.24-.277 0-.459-.107-.544-.32-.085-.224-.117-.613-.096-1.168l.08-3.584-2.432 4.848a.173.173 0 01-.128.048c-.075 0-.123-.027-.144-.08l-1.024-4.608c-.31 1.333-.566 2.33-.768 2.992-.203.661-.427 1.141-.672 1.44a1.106 1.106 0 01-.896.432c-.224 0-.395-.059-.512-.176a.543.543 0 01-.112-.464c.043-.33.272-.496.688-.496.288 0 .538-.123.752-.368.213-.256.421-.683.624-1.28.213-.608.459-1.488.736-2.64-.15-.341-.358-.512-.624-.512a.796.796 0 00-.576.256c-.021.021-.043.032-.064.032-.032 0-.064-.016-.096-.048-.021-.032-.016-.064.016-.096.203-.203.421-.357.656-.464.234-.117.459-.176.672-.176.267 0 .496.075.688.224.192.15.32.373.384.672l.8 3.888 2.192-4.4a.558.558 0 01.176-.24c.075-.043.197-.064.368-.064.128 0 .218.021.272.064.053.032.08.096.08.192l-.144 4.528c-.01.299.005.507.048.624.053.117.16.176.32.176a.711.711 0 00.4-.128 4.01 4.01 0 00.544-.48zm2.789 1.456c-.661 0-1.173-.224-1.536-.672-.352-.459-.528-1.05-.528-1.776 0-.235.026-.523.08-.864.117-.63.341-1.195.672-1.696a3.77 3.77 0 011.232-1.168c.48-.288.986-.432 1.52-.432.683 0 1.205.224 1.568.672.373.437.56 1.019.56 1.744 0 .277-.032.57-.096.88a4.52 4.52 0 01-.752 1.76 3.755 3.755 0 01-1.248 1.152c-.48.267-.97.4-1.472.4zm.56-.4c.416 0 .784-.197 1.104-.592.33-.395.56-.933.688-1.616.064-.341.096-.677.096-1.008 0-.725-.133-1.339-.4-1.84-.256-.512-.624-.768-1.104-.768-.406 0-.774.197-1.104.592-.33.395-.56.939-.688 1.632a6 6 0 00-.112 1.072c0 .715.133 1.317.4 1.808.277.48.65.72 1.12.72zm13.83-1.056c.021-.021.042-.032.064-.032.032 0 .058.021.08.064.021.032.016.064-.016.096-.363.427-.688.741-.976.944-.278.203-.555.304-.832.304-.214 0-.368-.059-.464-.176-.096-.128-.144-.325-.144-.592 0-.181.026-.448.08-.8l.464-2.544c.053-.352.08-.63.08-.832 0-.576-.187-.864-.56-.864-.31 0-.635.203-.976.608-.331.395-.651.987-.96 1.776-.31.779-.566 1.707-.768 2.784l-.064.352c-.011.085-.07.15-.176.192a1.02 1.02 0 01-.448.08c-.278 0-.416-.037-.416-.112.01-.064.042-.23.096-.496.064-.267.112-.501.144-.704l.528-2.8a4.66 4.66 0 00.064-.768c0-.608-.187-.912-.56-.912-.31 0-.64.213-.992.64-.342.427-.667 1.045-.976 1.856-.31.81-.56 1.76-.752 2.848l-.032.176c-.054.181-.267.272-.64.272-.278 0-.416-.037-.416-.112l.08-.368.16-.784.656-3.616a2.11 2.11 0 00.048-.4c0-.33-.102-.496-.304-.496-.256 0-.608.235-1.056.704a.07.07 0 01-.048.016c-.032 0-.059-.016-.08-.048-.022-.043-.022-.075 0-.096.362-.427.698-.741 1.008-.944.309-.203.608-.304.896-.304.213 0 .368.064.464.192.096.117.144.31.144.576 0 .16-.027.4-.08.72l-.288 1.664c.362-1.013.789-1.803 1.28-2.368.501-.565 1.018-.848 1.552-.848.661 0 .992.41.992 1.232 0 .235-.032.523-.096.864l-.208 1.136c.373-1.024.805-1.819 1.296-2.384.501-.565 1.018-.848 1.552-.848.65 0 .976.405.976 1.216 0 .256-.032.555-.096.896l-.512 2.848c-.032.16-.048.299-.048.416 0 .31.096.464.288.464.106 0 .24-.059.4-.176a6.32 6.32 0 00.592-.512zm4.971-5.056c.523 0 .917.144 1.184.432.277.277.416.688.416 1.232 0 .17-.016.363-.048.576a5.015 5.015 0 01-.736 2.016 4.917 4.917 0 01-1.392 1.488c-.544.373-1.099.56-1.664.56a6.03 6.03 0 01-.832-.048l-.512 2.88c-.032.181-.048.33-.048.448 0 .181.043.31.128.384.085.085.219.128.4.128.064 0 .192-.01.384-.032.043-.01.07.01.08.064.021.064.01.101-.032.112l-2.848.448c-.043.01-.07-.016-.08-.08-.01-.064.005-.101.048-.112.235-.043.405-.101.512-.176a.584.584 0 00.24-.32c.053-.15.112-.4.176-.752l1.36-7.616a31.8 31.8 0 00-.736.544l-.032.016c-.043 0-.075-.021-.096-.064-.021-.053-.016-.09.016-.112.288-.256.592-.496.912-.72l.208-1.184c0-.021.09-.096.272-.224.181-.139.341-.288.48-.448.15-.16.245-.336.288-.528.01-.043.043-.059.096-.048.064.01.09.037.08.08l-.288 1.648c.736-.395 1.424-.592 2.064-.592zm.48 2.768c.021-.256.032-.443.032-.56 0-1.045-.443-1.568-1.328-1.568-.416 0-.853.107-1.312.32l-.832 4.624c.395.17.8.256 1.216.256.63 0 1.125-.277 1.488-.832.373-.555.619-1.301.736-2.24zm5.668-2.864c.373 0 .661.07.864.208a.595.595 0 01.304.528c0 .501-.368.96-1.104 1.376-.725.405-1.605.699-2.64.88a5.065 5.065 0 00-.064.832c0 .65.139 1.173.416 1.568.288.395.704.592 1.248.592a2.44 2.44 0 001.552-.528h.016c.032 0 .059.016.08.048.032.032.037.064.016.096-.757.65-1.552.976-2.384.976-.704 0-1.232-.219-1.584-.656-.352-.437-.528-1.003-.528-1.696 0-.235.027-.501.08-.8a4.355 4.355 0 01.688-1.616c.363-.533.81-.965 1.344-1.296a3.093 3.093 0 011.696-.512zm-.096 1.2a1.41 1.41 0 00.032-.208c0-.181-.07-.32-.208-.416a.778.778 0 00-.48-.144c-.437 0-.81.219-1.12.656-.31.427-.533.987-.672 1.68 1.472-.277 2.288-.8 2.448-1.568zm11.883 3.952c.021-.021.043-.032.064-.032.032 0 .059.021.08.064.021.032.016.064-.016.096-.363.427-.688.741-.976.944-.277.203-.555.304-.832.304-.213 0-.368-.059-.464-.176-.096-.128-.144-.325-.144-.592 0-.181.027-.448.08-.8l.464-2.544c.053-.352.08-.63.08-.832 0-.576-.187-.864-.56-.864-.31 0-.635.203-.976.608-.33.395-.65.987-.96 1.776-.31.779-.565 1.707-.768 2.784l-.064.352c-.01.085-.07.15-.176.192a1.02 1.02 0 01-.448.08c-.277 0-.416-.037-.416-.112.01-.064.043-.23.096-.496.064-.267.112-.501.144-.704l.528-2.8a4.66 4.66 0 00.064-.768c0-.608-.187-.912-.56-.912-.31 0-.64.213-.992.64-.341.427-.667 1.045-.976 1.856-.31.81-.56 1.76-.752 2.848l-.032.176c-.053.181-.267.272-.64.272-.277 0-.416-.037-.416-.112l.08-.368.16-.784.656-3.616a2.11 2.11 0 00.048-.4c0-.33-.101-.496-.304-.496-.256 0-.608.235-1.056.704-.01.01-.027.016-.048.016-.032 0-.059-.016-.08-.048-.021-.043-.021-.075 0-.096.363-.427.699-.741 1.008-.944.31-.203.608-.304.896-.304.213 0 .368.064.464.192.096.117.144.31.144.576 0 .16-.027.4-.08.72l-.288 1.664c.363-1.013.79-1.803 1.28-2.368.501-.565 1.019-.848 1.552-.848.661 0 .992.41.992 1.232 0 .235-.032.523-.096.864l-.208 1.136c.373-1.024.805-1.819 1.296-2.384.501-.565 1.019-.848 1.552-.848.65 0 .976.405.976 1.216 0 .256-.032.555-.096.896l-.512 2.848c-.032.16-.048.299-.048.416 0 .31.096.464.288.464.107 0 .24-.059.4-.176a6.32 6.32 0 00.592-.512zm4.78-2.192c.362 0 .65.096.863.288.224.181.336.448.336.8 0 .395-.133.79-.4 1.184-.266.395-.634.72-1.104.976a3.185 3.185 0 01-1.552.384c-.48 0-.837-.085-1.072-.256-.234-.181-.352-.464-.352-.848 0-.192.022-.379.064-.56l.656-3.296c.032-.16.048-.299.048-.416 0-.32-.101-.48-.304-.48-.256 0-.597.24-1.024.72-.021.021-.042.032-.064.032-.032 0-.058-.016-.08-.048-.021-.043-.016-.08.016-.112.459-.459.816-.784 1.072-.976.267-.192.528-.288.784-.288.214 0 .374.064.48.192.107.128.16.325.16.592 0 .17-.026.405-.08.704l-.464 2.368c.235-.299.528-.533.88-.704a2.65 2.65 0 011.136-.256zm.095 1.424c0-.299-.08-.528-.24-.688a.752.752 0 00-.576-.24c-.234 0-.469.075-.704.224a1.79 1.79 0 00-.592.656c-.16.288-.24.624-.24 1.008 0 .32.08.565.24.736.16.16.374.24.64.24.299 0 .56-.107.784-.32a2.27 2.27 0 00.512-.784 2.38 2.38 0 00.176-.832zm11.347-3.28c0 .33-.154.667-.464 1.008-.309.33-.725.587-1.248.768.48.043.859.192 1.136.448.278.256.416.576.416.96 0 .33-.117.677-.352 1.04-.224.363-.554.667-.992.912-.426.245-.933.368-1.52.368-.8 0-1.402-.224-1.808-.672-.405-.459-.608-1.04-.608-1.744 0-.32.027-.592.08-.816a4.718 4.718 0 01.672-1.648 3.912 3.912 0 011.296-1.248 3.274 3.274 0 011.744-.48c.512 0 .912.107 1.2.32.299.203.448.464.448.784zm-1.136.384a1.29 1.29 0 00.016-.24c0-.33-.09-.576-.272-.736-.17-.16-.4-.24-.688-.24-.522 0-.981.256-1.376.768-.394.501-.661 1.13-.8 1.888-.064.33-.096.656-.096.976 0 .693.144 1.27.432 1.728.299.459.726.688 1.28.688.47 0 .822-.155 1.056-.464.246-.32.368-.71.368-1.168 0-.405-.128-.73-.384-.976-.245-.245-.608-.368-1.088-.368-.17 0-.416.027-.736.08h-.016a.197.197 0 01-.112-.032.172.172 0 01-.032-.096c0-.064.032-.101.096-.112.576-.15 1.019-.288 1.328-.416.31-.128.544-.288.704-.48.171-.203.278-.47.32-.8zm8.802 3.664a.07.07 0 01.048-.016c.032 0 .059.021.08.064.022.032.022.059 0 .08-.373.437-.709.757-1.008.96-.298.192-.592.288-.88.288-.213 0-.368-.059-.464-.176-.096-.117-.144-.31-.144-.576 0-.17.027-.416.08-.736l.32-1.824c-.384 1.067-.837 1.899-1.36 2.496-.512.587-1.05.88-1.616.88-.714 0-1.072-.405-1.072-1.216 0-.203.038-.501.112-.896l.576-2.848a2.11 2.11 0 00.048-.4c0-.32-.1-.48-.304-.48-.106 0-.24.059-.4.176a8.46 8.46 0 00-.576.512c-.02.021-.042.032-.064.032-.032 0-.058-.016-.08-.048-.02-.043-.016-.08.016-.112.374-.427.7-.741.976-.944.278-.203.555-.304.832-.304.416 0 .624.261.624.784 0 .203-.032.464-.096.784l-.512 2.544c-.064.32-.096.592-.096.816 0 .587.214.88.64.88.342 0 .694-.219 1.056-.656.363-.437.7-1.072 1.008-1.904.32-.832.582-1.819.784-2.96.022-.085.086-.15.192-.192a1.02 1.02 0 01.448-.08c.278 0 .416.037.416.112l-.064.32c-.096.459-.154.752-.176.88l-.656 3.568a1.97 1.97 0 00-.032.4c0 .33.096.496.288.496.128 0 .283-.059.464-.176.182-.128.379-.304.592-.528zm4.061-10.432c.938 0 1.637.48 2.096 1.44.458.95.688 2.155.688 3.616 0 .864-.07 1.69-.208 2.48-.246 1.461-.672 2.555-1.28 3.28-.608.715-1.344 1.072-2.208 1.072-.758 0-1.312-.235-1.664-.704-.352-.47-.528-1.05-.528-1.744 0-.288.021-.539.064-.752.17-1.013.57-1.813 1.2-2.4.629-.597 1.354-.896 2.176-.896.522 0 .981.123 1.376.368.01-.192.016-.48.016-.864 0-1.312-.166-2.39-.496-3.232-.331-.853-.886-1.28-1.664-1.28-.31 0-.624.085-.944.256l-.032.016c-.032 0-.064-.021-.096-.064-.022-.043-.022-.075 0-.096.512-.33 1.013-.496 1.504-.496zm-.56 11.504c.938 0 1.605-1.104 2-3.312.106-.544.181-1.12.224-1.728a1.728 1.728 0 00-.688-.56 1.938 1.938 0 00-.848-.192 1.78 1.78 0 00-1.328.56c-.363.373-.608.944-.736 1.712-.054.341-.08.667-.08.976 0 .715.117 1.317.352 1.808.245.49.613.736 1.104.736zm7.808-6.224c.374 0 .662.07.864.208a.595.595 0 01.304.528c0 .501-.368.96-1.104 1.376-.725.405-1.605.699-2.64.88a5.143 5.143 0 00-.064.832c0 .65.139 1.173.416 1.568.288.395.704.592 1.248.592a2.44 2.44 0 001.552-.528h.016c.032 0 .059.016.08.048.032.032.038.064.016.096-.757.65-1.552.976-2.384.976-.704 0-1.232-.219-1.584-.656-.352-.437-.528-1.003-.528-1.696 0-.235.027-.501.08-.8a4.362 4.362 0 01.688-1.616 4.45 4.45 0 011.344-1.296 3.096 3.096 0 011.696-.512zm-.096 1.2c.022-.107.032-.176.032-.208a.474.474 0 00-.208-.416.778.778 0 00-.48-.144c-.437 0-.81.219-1.12.656-.309.427-.533.987-.672 1.68 1.472-.277 2.288-.8 2.448-1.568zm3.915 5.408c-.661 0-1.173-.224-1.536-.672-.352-.459-.528-1.05-.528-1.776 0-.235.027-.523.08-.864a4.58 4.58 0 01.672-1.696c.342-.501.752-.89 1.232-1.168a2.91 2.91 0 011.52-.432c.683 0 1.206.224 1.568.672.374.437.56 1.019.56 1.744 0 .277-.032.57-.096.88a4.506 4.506 0 01-.752 1.76 3.755 3.755 0 01-1.248 1.152c-.48.267-.97.4-1.472.4zm.56-.4c.416 0 .784-.197 1.104-.592.331-.395.56-.933.688-1.616.064-.341.096-.677.096-1.008 0-.725-.133-1.339-.4-1.84-.256-.512-.624-.768-1.104-.768-.405 0-.773.197-1.104.592-.33.395-.56.939-.688 1.632a6.066 6.066 0 00-.112 1.072c0 .715.134 1.317.4 1.808.278.48.651.72 1.12.72z" fill="#fff"/><circle cx="70.5" cy="70.501" r="70" stroke="#fff"/></svg>